<?xml version="1.0" encoding="UTF-8" standalone="no"?>
<!-- Creator: CorelDRAW 2019 -->

<svg
   xml:space="preserve"
   width="297mm"
   height="210mm"
   version="1.1"
   style="clip-rule:evenodd;fill-rule:evenodd;image-rendering:optimizeQuality;shape-rendering:geometricPrecision;text-rendering:geometricPrecision"
   viewBox="0 0 29700 21000"
   id="svg33"
   sodipodi:docname="LINEART.svg"
   inkscape:export-filename="lineart.svg"
   inkscape:export-xdpi="25.4"
   inkscape:export-ydpi="25.4"
   xmlns:inkscape="http://www.inkscape.org/namespaces/inkscape"
   xmlns:sodipodi="http://sodipodi.sourceforge.net/DTD/sodipodi-0.dtd"
   xmlns="http://www.w3.org/2000/svg"
   xmlns:svg="http://www.w3.org/2000/svg"><sodipodi:namedview
   id="namedview35"
   pagecolor="#505050"
   bordercolor="#ffffff"
   borderopacity="1"
   inkscape:showpageshadow="0"
   inkscape:pageopacity="0"
   inkscape:pagecheckerboard="1"
   inkscape:deskcolor="#505050"
   inkscape:document-units="mm"
   showgrid="false" />
 <defs
   id="defs4"><style
     type="text/css"
     id="style2">
   <![CDATA[
    .str0 {stroke:#7E6591;stroke-width:141.11;stroke-miterlimit:22.9256}
    .str1 {stroke:#7E6591;stroke-width:105.83;stroke-miterlimit:22.9256}
    .fil0 {fill:none}
    .fil1 {fill:#695874}
   ]]>
  </style></defs>
 <g
   id="Layer_x0020_1"
   inkscape:label="Layer 1"
   inkscape:groupmode="layer">
  <metadata
   id="CorelCorpID_0Corel-Layer" />
  <g
   id="_548568256"
   style="fill:none;fill-opacity:1;stroke:#3d1652;stroke-width:281;stroke-dasharray:none;stroke-opacity:1">
   <path
   class="fil0 str0"
   d="m 13236.67,3551.08 c -72.87,138.74 -145.74,277.46 -210.98,467.76 -65.23,190.29 -122.81,432.15 -130.1,658.2 -7.29,226.05 35.71,436.28 81.34,637.59 45.62,201.31 93.85,393.71 112.49,581.3 18.65,187.59 7.69,370.38 -40.58,578.07 -48.29,207.7 -133.91,440.29 -226.02,626.43 -92.13,186.13 -190.76,325.8 -173.4,478.14 17.36,152.34 150.69,317.37 315.27,433.42 164.58,116.05 360.39,183.13 544.86,210.56 184.46,27.43 357.58,15.2 580.5,-42.97 222.91,-58.19 495.63,-162.33 766.16,-377.06 270.51,-214.73 538.86,-540.07 768.39,-829.78 229.54,-289.72 420.27,-543.82 569.51,-711.83 149.26,-168.02 257.03,-249.94 379.82,-297.11 122.79,-47.17 260.61,-59.58 385.95,-44.28 125.35,15.3 238.22,58.31 346.03,123.69 107.8,65.39 210.55,153.14 313.28,240.91"
   id="path7"
   style="fill:none;fill-opacity:1;stroke:#3d1652;stroke-width:281;stroke-dasharray:none;stroke-opacity:1" />
   <path
   class="fil0 str0"
   d="m 22488.48,6362.28 c -190.38,280.07 -236.73,383.62 -540.44,629.34 -303.72,245.73 -757.19,443.24 -1271.39,453.01 -514.19,9.76 -1089.13,-168.23 -1467.87,-348.51 -378.74,-180.28 -561.31,-362.84 -720.17,-567.34 -158.84,-204.51 -293.99,-430.95 -354.9,-568.45 -60.91,-137.5 -47.59,-186.06 -239.02,19.77 -896.49,975.52 -1816.18,2090.51 -2226.68,3365.17 -827.69,2570.2 19.43,5670.87 1758.27,7681.63 361.22,417.7 481.74,477.55 537.2,438.86 73.14,-51.02 -40.78,-410.01 -78.8,-835.52 -35.15,-393.34 -5.45,-843.54 296.8,-1159.84 268.27,-280.73 607.69,-291.8 965.76,-254.13 637.83,92.54 869.96,319.19 940.79,339.52 50.37,14.46 29.02,-168.87 -37.5,-729.54 -76.57,-1033.28 404.69,-1635.91 1432.99,-1419.52 157.41,33.11 306.77,79.55 417.03,117.48 134.16,46.16 229.17,105.15 235.21,101.61 31.86,-18.67 33.33,-74.03 33.48,-96.1 0.54,-76.57 -3.45,-199.25 -9.97,-372.37 -42.97,-1139.2 153.33,-1908.09 1282.08,-1415.69 113.88,49.67 87.36,42.99 198.19,98.95"
   id="path9"
   style="fill:none;fill-opacity:1;stroke:#3d1652;stroke-width:281;stroke-dasharray:none;stroke-opacity:1" />
   <path
   class="fil0 str0"
   d="m 13089.42,5895.93 c -698.14,-298.74 -1177.86,-618.82 -1650.18,-1469.51 -38.41,-69.17 -78.27,-52.68 -132.4,-30.29 -72.58,30.03 -660.32,542.14 -722.7,605.53 -866.64,880.58 -1384.22,1628.35 -1747.53,2428.7 -379.89,836.89 -583.73,1735.45 -493.96,3096.64 126.12,1912.37 947.54,3679.36 2365.83,4979.05 44.77,41.02 761.34,682.01 765.04,493.87 1.07,-54.62 -102.25,-215.59 -127.31,-276.98 -131,-320.9 -225.43,-777.96 -174.22,-1273.65 47.57,-460.47 305.38,-733.22 726.97,-662.35 l 176.3,29.64"
   id="path11"
   style="fill:none;fill-opacity:1;stroke:#3d1652;stroke-width:281;stroke-dasharray:none;stroke-opacity:1" />
   <path
   class="fil0 str0"
   d="m 14181.97,3044.43 c 988.7,-420.32 1537.86,-469.57 2588.1,-311.15"
   id="path13"
   style="fill:none;fill-opacity:1;stroke:#3d1652;stroke-width:281;stroke-dasharray:none;stroke-opacity:1" />
   <path
   class="fil0 str0"
   d="m 17429.44,2899.79 c 414.58,114.13 868.15,263.08 1271.63,429.7 549.61,226.96 1006.29,486.76 1491.77,810.21 485.48,323.45 999.77,710.57 1356.41,1043.91 356.64,333.32 555.61,612.87 754.59,892.41"
   id="path15"
   style="fill:none;fill-opacity:1;stroke:#3d1652;stroke-width:281;stroke-dasharray:none;stroke-opacity:1" />
   <path
   class="fil0 str0"
   d="m 13648.49,3468.7 c 162.53,-80.61 352.11,-205.24 455.42,-316.4 103.3,-111.15 120.31,-208.86 159.27,-350.02 38.95,-141.16 99.84,-325.79 147.8,-465.87 47.94,-140.09 82.92,-235.63 109.03,-285.86 26.11,-50.24 43.32,-55.16 -37.88,-19.76 -81.2,35.4 -260.81,111.12 -427.03,231.21 -166.22,120.08 -319.05,284.54 -436.02,424.15 -116.96,139.61 -198.07,254.37 -260.09,388.29 -62.03,133.92 -104.97,287 -125.78,381.54 -20.81,94.52 -19.49,130.52 48.9,130.21 68.39,-0.3 203.86,-36.89 366.38,-117.49 z"
   id="path17"
   style="fill:none;fill-opacity:1;stroke:#3d1652;stroke-width:281;stroke-dasharray:none;stroke-opacity:1" />
   <path
   class="fil0 str0"
   d="m 15522.87,3541.08 c 56.61,99.9 186.07,180.47 328.53,214.97 142.47,34.48 297.96,22.91 446.79,-50.2 148.82,-73.12 290.97,-207.77 424.58,-334.75 133.61,-126.98 258.68,-246.3 399.46,-338.24 140.78,-91.95 297.27,-156.51 439.28,-214.67 142.02,-58.16 269.56,-109.9 291.99,-140.14 22.42,-30.24 -60.27,-38.98 -277.31,-28.34 -217.03,10.62 -568.41,40.62 -876.85,93.11 -308.44,52.5 -573.92,127.47 -766.88,207.87 -192.94,80.39 -313.35,166.19 -381.66,268.72 -68.32,102.52 -84.55,221.76 -27.93,321.67 z"
   id="path19"
   style="fill:none;fill-opacity:1;stroke:#3d1652;stroke-width:281;stroke-dasharray:none;stroke-opacity:1" />
   <path
   class="fil0 str0"
   d="m 16982.16,16463.07 c -1238.12,1122.83 -3121.98,1130.72 -4657.09,738.66 -1195.18,-320.87 -1829.13,-856.78 -2688.03,-1707.14 -496.36,-491.4 468.25,910.53 528.53,986.72 899.94,1137.55 2301.32,1881.39 3708.65,2164.85 2199.8,421.92 4480.12,11.79 6379.33,-1176.89 971.08,-617.69 1724.76,-1404.3 2306.25,-2314.03 581.5,-909.73 990.8,-1942.59 1106.95,-3188.28 116.14,-1245.69 -60.87,-2704.22 -336.89,-3721.51 -276,-1017.3 -651.01,-1593.37 -1026.02,-2169.43"
   id="path21"
   style="fill:none;fill-opacity:1;stroke:#3d1652;stroke-width:281;stroke-dasharray:none;stroke-opacity:1" />
   <path
   class="fil0 str0"
   d="m 15761.44,9080.14 c -726.65,-413.1 -1331.54,-465.5 -2028.96,82.39 -1195.33,939.07 -1873.66,2946.3 -1688.33,4442.34 208.71,1684.8 1277.63,2969.66 3072.99,2931.95 639.04,-13.43 1029.92,-208.21 1518.92,-596.53"
   id="path23"
   style="fill:none;fill-opacity:1;stroke:#3d1652;stroke-width:281;stroke-dasharray:none;stroke-opacity:1" />
   <path
   class="fil0 str0"
   d="m 15114.213,5405.8788 c -65.023,-40.5016 -190.588,29.1926 -258.779,99.3644 -68.191,70.1718 -79.022,140.8213 -75.061,220.7497 3.962,79.9285 22.716,169.1288 93.155,174.2987 70.439,5.1698 192.562,-73.698 251.382,-188.4735 58.814,-114.7755 54.326,-265.4518 -10.697,-305.9393 z"
   id="path25"
   style="fill:#3d1652;fill-opacity:1;stroke:#3d1652;stroke-width:197.38;stroke-dasharray:none;stroke-opacity:1" />
   <ellipse
   class="fil1 str1"
   transform="matrix(0.660102,-0.267071,0.267071,0.660102,13717.8,7537.01)"
   rx="81.580002"
   ry="55.119999"
   id="ellipse27"
   style="fill:#3d1652;fill-opacity:1;stroke:none;stroke-width:408.66;stroke-dasharray:none;stroke-opacity:1"
   cx="0"
   cy="0" />
   <ellipse
   class="fil1 str1"
   transform="matrix(0.80326509,0.59562168,-0.5748949,0.81822726,0,0)"
   rx="149.95016"
   ry="102.17765"
   id="ellipse29"
   style="fill:#3d1652;fill-opacity:1;stroke:none;stroke-width:754.341;stroke-dasharray:none;stroke-opacity:1"
   cx="14835.623"
   cy="-1716.0741" /><ellipse
   class="fil1 str1"
   transform="matrix(-0.81084414,0.58526215,0.58526215,0.81084414,0,0)"
   rx="174.2751"
   ry="117.74998"
   id="ellipse29-9"
   style="clip-rule:evenodd;fill:#3d1652;fill-opacity:1;fill-rule:evenodd;stroke:none;stroke-width:873;stroke-miterlimit:22.9256;stroke-dasharray:none;stroke-opacity:1;image-rendering:optimizeQuality;shape-rendering:geometricPrecision;text-rendering:geometricPrecision"
   cx="-6727.3066"
   cy="14136.698" />
  </g>
 </g>
</svg>
