<?xml version="1.0" encoding="UTF-8"?>
<!DOCTYPE svg PUBLIC "-//W3C//DTD SVG 1.1//EN" "http://www.w3.org/Graphics/SVG/1.1/DTD/svg11.dtd">
<!-- Creator: CorelDRAW -->
<svg xmlns="http://www.w3.org/2000/svg" xml:space="preserve" width="127.608mm" height="119.829mm" version="1.1" style="shape-rendering:geometricPrecision; text-rendering:geometricPrecision; image-rendering:optimizeQuality; fill-rule:evenodd; clip-rule:evenodd"
viewBox="0 0 11637.71 10928.25"
 xmlns:xlink="http://www.w3.org/1999/xlink"
 xmlns:xodm="http://www.corel.com/coreldraw/odm/2003">
 <defs>
  <style type="text/css">
   <![CDATA[
    .str7 {stroke:#523E61;stroke-width:128.69;stroke-miterlimit:22.9256}
    .str3 {stroke:#21E9FF;stroke-width:96.52;stroke-miterlimit:22.9256}
    .str0 {stroke:#B6F8FF;stroke-width:96.52;stroke-miterlimit:22.9256}
    .str1 {stroke:#D3A9FF;stroke-width:96.52;stroke-miterlimit:22.9256}
    .str2 {stroke:#E4CAFF;stroke-width:96.52;stroke-miterlimit:22.9256}
    .str4 {stroke:#FFB777;stroke-width:96.52;stroke-miterlimit:22.9256}
    .str8 {stroke:#523E61;stroke-width:68.73;stroke-miterlimit:22.9256}
    .str6 {stroke:#D3A9FF;stroke-width:18.24;stroke-miterlimit:22.9256}
    .str5 {stroke:#E4CAFF;stroke-width:18.24;stroke-miterlimit:22.9256}
    .fil15 {fill:none}
    .fil12 {fill:#19C4E6}
    .fil3 {fill:#21E9FF}
    .fil16 {fill:#695874}
    .fil0 {fill:#B6F8FF}
    .fil1 {fill:#D3A9FF}
    .fil2 {fill:#E4CAFF}
    .fil4 {fill:#FFB777}
    .fil17 {fill:#FEFEFE;fill-rule:nonzero}
    .fil5 {fill:url(#id0)}
    .fil6 {fill:url(#id1)}
    .fil13 {fill:url(#id2)}
    .fil14 {fill:url(#id3)}
    .fil11 {fill:url(#id4)}
    .fil7 {fill:url(#id5)}
    .fil8 {fill:url(#id6)}
    .fil10 {fill:url(#id7)}
    .fil9 {fill:url(#id8)}
   ]]>
  </style>
  <linearGradient id="id0" gradientUnits="userSpaceOnUse" x1="9393.03" y1="5043.18" x2="7048.08" y2="5166.83">
   <stop offset="0" style="stop-opacity:1; stop-color:#19C4E6"/>
   <stop offset="0.34902" style="stop-opacity:1; stop-color:#1DD6F2"/>
   <stop offset="1" style="stop-opacity:1; stop-color:#21E9FF"/>
  </linearGradient>
  <linearGradient id="id1" gradientUnits="userSpaceOnUse" x1="5485.53" y1="8498.31" x2="6167.68" y2="8975.31">
   <stop offset="0" style="stop-opacity:1; stop-color:#FFB777"/>
   <stop offset="1" style="stop-opacity:1; stop-color:#D1782A"/>
  </linearGradient>
  <linearGradient id="id2" gradientUnits="userSpaceOnUse" x1="6359.95" y1="1248.4" x2="6615.75" y2="1659.85">
   <stop offset="0" style="stop-opacity:1; stop-color:#FFB777"/>
   <stop offset="0.521569" style="stop-opacity:1; stop-color:#ED9950"/>
   <stop offset="1" style="stop-opacity:1; stop-color:#DB7B28"/>
  </linearGradient>
  <linearGradient id="id3" gradientUnits="userSpaceOnUse" x1="4868.16" y1="1310.4" x2="4604.87" y2="1183.63">
   <stop offset="0" style="stop-opacity:1; stop-color:#FF9130"/>
   <stop offset="0.270588" style="stop-opacity:1; stop-color:#FFA453"/>
   <stop offset="1" style="stop-opacity:1; stop-color:#FFB777"/>
  </linearGradient>
  <linearGradient id="id4" gradientUnits="userSpaceOnUse" x1="4965.88" y1="4492.26" x2="4750.77" y2="3950.02">
   <stop offset="0" style="stop-opacity:1; stop-color:#19C4E6"/>
   <stop offset="0.458824" style="stop-opacity:1; stop-color:#1DD6F2"/>
   <stop offset="1" style="stop-opacity:1; stop-color:#21E9FF"/>
  </linearGradient>
  <linearGradient id="id5" gradientUnits="userSpaceOnUse" x1="5364.51" y1="5426.57" x2="5772.04" y2="5205.14">
   <stop offset="0" style="stop-opacity:1; stop-color:#FFB777"/>
   <stop offset="0.431373" style="stop-opacity:1; stop-color:#EA9B54"/>
   <stop offset="1" style="stop-opacity:1; stop-color:#D57E31"/>
  </linearGradient>
  <linearGradient id="id6" gradientUnits="userSpaceOnUse" x1="5480.15" y1="3921.51" x2="2656.59" y2="5012.47">
   <stop offset="0" style="stop-opacity:1; stop-color:#82DEE8"/>
   <stop offset="1" style="stop-opacity:1; stop-color:#B6F8FF"/>
  </linearGradient>
  <linearGradient id="id7" gradientUnits="userSpaceOnUse" x1="9650.43" y1="3452.83" x2="8380.92" y2="3089.35">
   <stop offset="0" style="stop-opacity:1; stop-color:#19C4E6"/>
   <stop offset="1" style="stop-opacity:1; stop-color:#21E9FF"/>
  </linearGradient>
  <linearGradient id="id8" gradientUnits="userSpaceOnUse" x1="9633.24" y1="6609.87" x2="8121.13" y2="9614.58">
   <stop offset="0" style="stop-opacity:1; stop-color:#78DBE6"/>
   <stop offset="1" style="stop-opacity:1; stop-color:#B6F8FF"/>
  </linearGradient>
 </defs>
 <g id="Warstwa_x0020_1">
  <metadata id="CorelCorpID_0Corel-Layer"/>
  <g id="_1690096190192">
   <g id="_847259456">
    <path class="fil0 str0" d="M6895.53 3385.42c-36.2,-144.81 -103.17,-335.17 -215.96,-452.77 -112.79,-117.6 -271.39,-162.43 -462.74,-102.08 -191.34,60.33 -415.46,225.83 -653.35,355.12 -237.9,129.29 -489.59,222.38 -712.2,206.39 -222.62,-16 -416.13,-141.08 -571.17,-236.61 -155.03,-95.53 -271.56,-161.51 -393.84,-234.13 -122.28,-72.61 -250.3,-151.86 -356.07,-267.71 -105.76,-115.86 -189.26,-268.32 -237.87,-346.83 -48.62,-78.52 -62.33,-83.08 -76.83,-90.68 -14.5,-7.59 -29.76,-18.21 -88.74,24.35 -58.99,42.55 -161.69,138.29 -298.75,277.09 -137.06,138.8 -308.48,320.65 -472.41,525.12 -163.94,204.46 -320.4,431.53 -449.87,664.16 -129.47,232.61 -231.97,470.78 -304.31,701.09 -72.34,230.32 -114.54,452.8 -136.8,674.57 -22.26,221.77 -24.58,442.82 -15.5,644.16 9.07,201.34 29.56,382.96 65.85,577.73 36.29,194.76 88.39,402.65 160.25,614.75 71.86,212.11 163.48,428.42 288.89,656.8 125.41,228.38 284.59,468.83 424.64,654.11 140.04,185.27 260.97,315.39 379.07,428.74 118.1,113.35 233.4,209.93 317.87,267.27 84.49,57.34 138.16,75.41 150.41,56.08 12.24,-19.32 -16.95,-76.04 -52.88,-164.25 -35.93,-88.22 -78.58,-207.91 -97.87,-341.18 -19.3,-133.28 -15.25,-280.15 5.32,-402.29 20.56,-122.12 57.62,-219.52 129.16,-284.18 71.54,-64.65 177.55,-96.53 251.73,-99.58 74.17,-3.05 116.51,22.77 134.64,14.98 18.11,-7.79 12.04,-49.17 16.85,-222.63 4.82,-173.45 20.53,-478.99 72.23,-785.39 51.69,-306.39 139.36,-613.65 282.4,-883.24 143.03,-269.58 341.42,-501.5 505.2,-670.45 163.77,-168.94 292.91,-274.91 419.81,-325.32 126.89,-50.41 251.52,-45.29 383.24,-20.82 131.72,24.48 270.53,68.31 375.44,120.91 104.91,52.6 175.9,113.97 316.56,55.02 140.66,-58.95 350.97,-238.24 523.36,-465.79 172.39,-227.56 306.86,-503.38 371.37,-690.92 64.52,-187.53 59.09,-286.78 22.88,-431.59z"/>
    <path class="fil0 str0" d="M7481.79 8044.04c-39.04,129.97 -79.2,307.14 -149.02,440.75 -69.81,133.61 -169.29,223.63 -266.45,464.31 -97.14,240.67 -191.96,632 -442.65,939.38 -250.7,307.37 -657.26,530.78 -914.92,642.09 -257.67,111.32 -366.42,110.53 -431.58,109.18 -65.16,-1.35 -86.71,-3.26 2.02,-0.45 88.73,2.83 287.73,10.36 557.35,-5.93 269.63,-16.28 609.86,-56.4 929.76,-124.01 319.91,-67.62 619.47,-162.74 890.56,-273.31 271.1,-110.57 513.71,-236.6 760.23,-400.21 246.53,-163.61 496.94,-364.8 713.79,-577.88 216.86,-213.08 400.17,-438.06 544.65,-642.94 144.49,-204.89 250.16,-389.68 324.28,-576.19 74.14,-186.5 116.73,-374.73 148.73,-561.12 32.01,-186.38 53.43,-370.95 60.8,-531.45 7.38,-160.49 0.71,-296.93 -19.89,-422.96 -20.6,-126.02 -55.14,-241.63 -137.92,-345.99 -82.76,-104.35 -213.79,-197.44 -374.11,-178.48 -160.32,18.97 -349.95,149.98 -593.03,370.64 -243.06,220.66 -539.58,530.96 -768.86,756.79 -229.27,225.84 -391.32,367.2 -499.93,456.84 -108.6,89.65 -163.77,127.57 -210.31,187.9 -46.55,60.35 -84.47,143.09 -123.51,273.05z"/>
    <path class="fil1 str1" d="M2136.47 8709.94c2.85,23.27 35.62,84.24 76.82,153.11 41.2,68.87 90.85,145.67 139.65,218.82 48.8,73.16 96.74,142.68 159.34,220.78 62.6,78.12 139.86,164.82 214.71,241.27 74.86,76.45 147.3,142.64 214.73,199.98 67.41,57.35 129.78,105.85 189.13,147.91 59.34,42.07 115.66,77.7 164.97,98.39 49.3,20.69 91.6,26.46 165.09,33.86 73.49,7.41 178.17,16.48 278.77,19.06 100.59,2.59 197.09,-1.31 293.61,-12.56 96.5,-11.24 193,-29.83 267,-50.5 74,-20.67 125.5,-43.41 164.12,-66.23 38.62,-22.83 64.37,-45.73 52.86,-59.28 -11.51,-13.55 -60.26,-17.76 -128.75,-25.85 -68.47,-8.09 -156.66,-20.06 -243.25,-34.41 -86.59,-14.34 -171.59,-31.05 -265.83,-47.45 -94.24,-16.39 -197.71,-32.47 -378.73,-105.15 -181.03,-72.69 -439.62,-201.98 -623.35,-319.83 -183.74,-117.85 -292.64,-224.25 -372.94,-301.74 -80.31,-77.49 -132.03,-126.06 -180.05,-172.03 -48.03,-45.96 -92.34,-89.31 -128.02,-118.18 -35.69,-28.87 -62.73,-43.26 -59.87,-19.99z"/>
    <path class="fil2 str2" d="M6450.28 9348.43c-81.09,45.83 -183.83,136.23 -323.97,215.48 -140.15,79.25 -317.71,147.35 -484.88,190.97 -167.18,43.61 -323.97,62.75 -470.05,75.14 -146.09,12.39 -281.48,18.03 -381.44,23.4 -99.97,5.36 -164.52,10.46 -241.61,37.15 -77.09,26.69 -166.74,74.96 -291.72,107.71 -124.99,32.76 -285.32,50 -430.98,57.32 -145.67,7.33 -276.69,4.74 -360.22,-3.19 -83.54,-7.93 -119.59,-21.2 -110.28,-11.36 9.31,9.84 63.98,42.82 140.52,84.58 76.53,41.77 174.94,92.34 300.96,147.56 126.03,55.22 279.66,115.08 406.63,159.05 126.96,43.98 227.24,72.05 343.17,98.31 115.94,26.27 247.53,50.75 362.62,68.34 115.09,17.58 213.69,28.28 300.04,31.05 86.36,2.79 160.48,-2.33 300.81,-50.49 140.33,-48.15 346.85,-139.32 543.52,-261.66 196.66,-122.33 383.46,-275.82 513.54,-412.44 130.09,-136.6 203.46,-256.31 221.68,-332.82 18.22,-76.51 -18.7,-109.82 -50.95,-148.02 -32.26,-38.2 -59.84,-81.3 -103.35,-102.23 -43.51,-20.91 -102.96,-19.66 -184.05,26.16z"/>
    <path class="fil3 str3" d="M3995.51 4095.56c30.47,70.61 102.3,163.25 186.36,226.2 84.06,62.94 180.36,96.16 315.64,98.25 135.27,2.09 309.52,-26.97 441.14,-68.02 131.61,-41.05 220.59,-94.1 333.37,-193.18 112.78,-99.08 249.36,-244.19 362.02,-373.11 112.68,-128.94 201.43,-241.68 290.34,-356.3 88.92,-114.62 177.98,-231.11 272.73,-289.33 94.75,-58.23 195.17,-58.2 287.84,-42.59 92.68,15.61 177.61,46.81 233.63,83.87 56.02,37.04 83.15,79.94 121.7,88.03 38.56,8.09 88.55,-18.63 32.16,57.7 -56.41,76.33 -219.2,255.73 -396.53,482.95 -177.33,227.23 -369.19,502.28 -518.57,782.9 -149.37,280.61 -256.26,566.77 -317.96,904.59 -61.71,337.81 -78.25,727.27 -59,1089.45 19.25,362.17 74.3,697.06 156.93,1013.36 82.63,316.3 192.85,614 300.54,857.31 107.69,243.32 212.85,432.25 332,615.91 119.15,183.67 252.31,362.06 368.96,500.9 116.65,138.84 216.81,238.13 274.13,278.64 57.35,40.52 71.85,22.26 70.7,-41.85 -1.15,-64.1 -17.97,-174.06 -37.39,-305.47 -19.43,-131.4 -41.46,-284.26 -24.9,-411.41 16.58,-127.15 71.75,-228.59 128.21,-325.99 56.46,-97.39 114.2,-190.76 212.89,-240.03 98.7,-49.27 238.33,-54.44 365.9,-34.18 127.57,20.26 243.07,65.94 337.81,113.96 94.75,48.03 168.73,98.39 211.6,117.45 42.89,19.05 54.67,6.79 47.85,-67.09 -6.82,-73.89 -32.25,-209.39 -41.09,-365.07 -8.84,-155.68 -1.08,-331.52 48.49,-475.46 49.56,-143.95 140.93,-256 228.43,-316.76 87.5,-60.77 171.12,-70.25 287.92,-67.22 116.8,3.02 266.77,18.52 375.35,46.47 108.57,27.95 175.71,68.33 220.36,87.41 44.64,19.09 66.78,16.88 78.37,1.23 11.59,-15.65 12.64,-44.76 10.87,-92.41 -1.77,-47.63 -6.35,-113.81 -8.43,-208.2 -2.07,-94.39 -1.64,-217.01 9.13,-322.39 10.77,-105.37 31.88,-193.51 61.61,-272.06 29.74,-78.55 68.1,-147.5 124.56,-190.17 56.46,-42.67 131.02,-59.04 183.86,-63.93 52.85,-4.88 83.98,1.73 126.62,7.56 42.64,5.83 96.81,10.87 130.48,31.06 33.69,20.2 46.89,55.53 55.4,122.51 8.51,66.99 12.33,165.6 8.46,281.47 -3.86,115.87 -15.42,248.97 -37.29,413 -21.87,164.03 -54.05,358.98 -87.82,510.75 -33.76,151.78 -69.11,260.39 -23.86,139.28 45.25,-121.1 171.11,-471.92 244.34,-807.88 73.24,-335.96 93.86,-657.06 98.78,-921.06 4.92,-263.99 -5.89,-470.89 -37.87,-732.83 -31.98,-261.93 -85.15,-578.92 -142.64,-833.17 -57.49,-254.24 -119.3,-445.74 -198.16,-634.46 -78.87,-188.73 -174.8,-374.67 -230.6,-480.19 -55.79,-105.51 -71.45,-130.6 -139.3,-233.41 -67.84,-102.82 -187.88,-283.35 -370.08,-471.34 -182.21,-188 -426.59,-383.44 -696.18,-571.42 -269.58,-187.98 -564.35,-368.52 -837.67,-507.49 -273.3,-138.98 -525.16,-236.41 -680.91,-294.02 -155.76,-57.61 -215.41,-75.38 -339.67,-105.82 -124.24,-30.42 -313.09,-73.52 -505.47,-98.18 -192.39,-24.69 -388.33,-30.96 -591.01,-9.53 -202.69,21.42 -412.12,70.56 -546.2,106.83 -134.09,36.28 -192.81,59.7 -315.36,122.43 -122.55,62.73 -308.9,164.78 -427.81,279.78 -118.9,114.99 -170.38,242.94 -202.92,351.48 -32.54,108.54 -46.17,197.66 -48.4,288.88 -2.23,91.23 6.93,184.54 27.35,275.46 20.42,90.93 52.09,179.44 71.82,288.24 19.73,108.79 27.51,237.86 13.52,361.56 -14.01,123.69 -49.81,242.01 -92.74,345.83 -42.93,103.83 -92.99,193.19 -123.46,262.16 -30.47,68.96 -41.35,117.53 -10.88,188.14z"/>
    <path class="fil0 str0" d="M6437.44 3088.93c36.27,-12.67 127.4,-39.01 232.6,-37.23 105.2,1.78 224.46,31.67 282.12,55.52 57.67,23.85 53.76,41.64 37.88,66.54 -15.89,24.89 -43.73,56.88 -68.1,74.44 -24.38,17.55 -45.26,20.67 -75.99,7.54 -30.73,-13.11 -71.3,-42.46 -110.35,-66.02 -39.05,-23.57 -76.6,-41.34 -115.53,-55.32 -38.94,-13.97 -79.28,-24.16 -109.79,-29.32 -30.51,-5.16 -51.21,-5.32 -70.85,-4.9 -19.65,0.42 -38.27,1.42 -2,-11.25z"/>
    <path class="fil4 str4" d="M5699.94 4971.4c-25.66,-56.03 -130.41,-94.71 -247,-124.98 -116.59,-30.29 -245,-52.17 -355.5,-47.82 -110.51,4.37 -203.11,34.97 -304.7,95.61 -101.6,60.64 -212.2,151.3 -302.1,235.23 -89.9,83.93 -159.1,161.12 -229.59,245.09 -70.49,83.96 -142.26,174.69 -209.96,287.34 -67.69,112.64 -131.29,247.19 -182.65,376.54 -51.37,129.36 -90.49,253.5 -133.59,414.02 -43.11,160.52 -90.19,357.41 -98.98,625.97 -8.8,268.55 20.67,608.78 60.35,841.56 39.67,232.78 89.53,358.12 141.47,464.47 51.93,106.35 105.94,193.71 165.47,274.22 59.53,80.51 124.59,154.19 192.27,219.09 67.7,64.92 138.04,121.06 237.17,180.05 99.13,59.01 227.08,120.89 393.31,166.17 166.23,45.28 370.77,73.96 552.56,72.98 181.8,-0.98 340.87,-31.65 465.52,-72.17 124.64,-40.51 214.86,-90.87 283.77,-133.83 68.92,-42.97 116.53,-78.55 133.02,-109.52 16.5,-30.97 1.87,-57.34 -32.31,-118.99 -34.18,-61.66 -87.93,-158.59 -185.93,-355.1 -97.99,-196.5 -240.24,-492.56 -337.22,-828.5 -96.97,-335.94 -148.69,-711.75 -165.46,-1014.58 -16.76,-302.83 1.41,-532.66 20.38,-768.83 18.96,-236.18 38.71,-478.69 75.3,-636.64 36.59,-157.96 90.03,-231.34 64.38,-287.38z"/>
    <path class="fil4 str4" d="M5295.27 2775.56c-36.01,13.83 -56.36,30.45 -77.04,63.55 -20.69,33.09 -41.71,82.65 -49.63,128.12 -7.93,45.47 -2.78,86.84 10.24,117.03 13.02,30.18 33.92,49.18 64.94,49.94 31.03,0.76 72.17,-16.73 104.2,-37.94 32.02,-21.21 54.91,-46.16 72,-69.91 17.09,-23.75 28.36,-46.3 37.03,-73.21 8.66,-26.91 14.7,-58.2 17.27,-81.97 2.57,-23.77 1.67,-40.02 -5.53,-60.67 -7.2,-20.67 -20.69,-45.74 -53.26,-52.76 -32.57,-7.01 -84.22,4.01 -120.23,17.84z"/>
    <path class="fil4 str4" d="M5702.06 1471.07c-20.66,23.24 -45.36,57.24 -58.86,92.62 -13.51,35.39 -15.8,72.16 -0.65,109.67 15.16,37.5 47.8,75.76 82.24,102.32 34.45,26.57 70.72,41.44 122.73,47.88 52,6.42 119.73,4.4 176.37,-8.42 56.64,-12.82 102.19,-36.46 149.11,-68.92 46.91,-32.47 95.21,-73.76 142.53,-115.97 47.31,-42.2 93.64,-85.32 137.06,-122.52 43.42,-37.21 83.92,-68.52 119.31,-92.83 35.39,-24.32 65.67,-41.66 108.6,-62.64 42.94,-20.98 98.52,-45.6 140.98,-64.02 42.47,-18.41 71.83,-30.62 96.58,-47.09 24.75,-16.46 44.92,-37.17 58.78,-44.76 13.86,-7.6 21.42,-2.06 -1.9,-2.07 -23.33,0 -77.53,-5.54 -126.12,-6.91 -48.58,-1.37 -91.56,1.43 -134.54,4.81 -42.97,3.37 -85.95,7.31 -116.41,10.27 -30.45,2.95 -48.39,4.92 -85,9.65 -36.6,4.72 -91.87,12.21 -142.38,20.11 -50.51,7.91 -96.27,16.23 -132.83,23.47 -36.56,7.23 -63.93,13.38 -94.32,20.89 -30.38,7.51 -63.78,16.38 -95.72,25.67 -31.95,9.29 -62.44,19.02 -97.74,31.99 -35.28,12.97 -75.37,29.17 -108.49,44.49 -33.12,15.3 -59.3,29.71 -80.68,43.16 -21.4,13.43 -38.01,25.9 -58.66,49.15z"/>
    <path class="fil4 str4" d="M4328.94 1675.1c-15.28,-35.38 -0.11,-107.47 23.26,-173.87 23.37,-66.41 54.97,-127.15 92.51,-184.6 37.53,-57.44 80.99,-111.6 126.93,-162.73 45.93,-51.13 94.32,-99.22 145.35,-141.95 51.03,-42.74 104.71,-80.12 150.47,-108.24 45.77,-28.13 83.64,-47.01 114.24,-61.49 30.59,-14.48 53.91,-24.55 58.56,-11.71 4.65,12.84 -9.37,48.57 -23.47,86.89 -14.12,38.32 -28.34,79.21 -43.68,125.02 -15.34,45.82 -31.8,96.56 -48.01,149.75 -16.22,53.18 -32.19,108.8 -50.52,150.66 -18.34,41.87 -39.03,69.97 -71.69,107.4 -32.66,37.45 -77.29,84.22 -118.22,118.81 -40.93,34.58 -78.18,56.99 -119.08,78.09 -40.9,21.09 -85.45,40.88 -130.58,51.45 -45.13,10.56 -90.81,11.88 -106.06,-23.49z"/>
    <path class="fil5" d="M7415.56 3697.14c-95.22,74.78 -257.04,238.76 -387.95,472.46 -130.91,233.7 -230.89,537.1 -317.08,916.36 -86.2,379.26 -158.6,834.37 -162.05,1263.61 -3.45,429.26 62.07,832.65 151.71,1155.02 89.64,322.37 203.42,563.72 298.34,736.74 94.92,173.02 171,277.72 218.88,328.78 47.88,51.05 67.56,48.47 117.04,25.28 49.48,-23.18 128.76,-66.97 255.68,-68.28 126.91,-1.31 301.47,39.85 431.98,68.84 130.52,28.97 217.01,45.76 260.24,54.15 43.25,8.4 43.25,8.4 38,-47.43 -5.23,-55.82 -15.72,-167.47 -22.21,-268.34 -6.48,-100.87 -8.96,-190.98 19.19,-304.67 28.17,-113.68 86.99,-250.96 155.72,-352.71 68.75,-101.75 147.4,-167.99 220.06,-202.24 72.66,-34.25 139.3,-36.52 211.85,-28.44 72.56,8.07 151.03,26.48 231.02,47.17 79.99,20.68 161.5,43.65 218.02,58.6 56.53,14.97 88.05,21.93 113.76,27.61 25.71,5.68 45.6,10.08 59.88,-155.93 14.28,-166 22.95,-502.41 70.82,-712.42 47.87,-210.01 134.93,-293.62 247.4,-308.67 112.48,-15.05 250.4,38.46 349.44,90.59 99.04,52.14 159.22,102.9 190.22,53.24 30.99,-49.66 32.81,-199.74 35.72,-315.61 2.91,-115.87 6.92,-197.52 4.6,-305.68 -2.32,-108.15 -10.97,-242.82 -23.66,-356.59 -12.69,-113.78 -29.39,-206.67 -46.84,-308.49 -17.45,-101.83 -35.61,-212.58 -55.02,-318.99 -19.4,-106.4 -40.05,-208.44 -73.59,-340.13 -33.52,-131.67 -79.95,-293 -124.38,-431.11 -44.42,-138.11 -86.86,-253.02 -149.63,-384.07 -62.76,-131.06 -145.86,-278.27 -195.37,-340.03 -49.48,-61.77 -65.37,-38.1 -97.94,5.44 -32.56,43.54 -81.8,106.94 -147.39,182.16 -65.58,75.22 -147.51,162.28 -266.06,231.65 -118.54,69.38 -273.7,121.1 -539.18,107.31 -265.48,-13.79 -641.29,-93.1 -849.48,-157.53 -208.18,-64.44 -248.74,-114.02 -283.33,-146.01 -34.59,-32 -63.22,-46.42 -158.44,28.36z"/>
    <path class="fil6" d="M5767.38 7805.04c-35.18,-21.71 -40.28,161.28 -161.81,377.33 -121.52,216.05 -359.47,465.16 -556.01,589.71 -196.55,124.56 -351.71,124.56 -487.16,121.41 -135.45,-3.16 -251.21,-9.45 -290.21,3.58 -39.01,13.04 -1.28,45.42 65.01,92.9 66.27,47.49 161.1,110.09 305.61,167.46 144.5,57.37 338.68,109.53 499.33,135.14 160.66,25.62 287.79,24.68 404.91,10.6 117.13,-14.08 224.26,-41.3 331.4,-86.94 107.15,-45.63 214.32,-109.66 283.23,-152.63 68.91,-42.96 99.58,-64.87 88.51,-124.29 -11.08,-59.43 -63.9,-156.38 -105.47,-234.63 -41.55,-78.25 -71.85,-137.79 -105.25,-205.52 -33.41,-67.72 -69.9,-143.61 -120.78,-294.77 -50.87,-151.17 -116.11,-377.61 -151.29,-399.34z"/>
    <path class="fil7" d="M4827.68 4851.38c279.14,46.8 285.03,261.37 469.99,482 33.23,39.64 261.98,558.7 262.96,557.31 2.09,-2.93 102.26,-693.63 165.07,-787.51 65.14,-97.37 38.29,-106.66 26.3,-164.6 -13.52,-2.8 -193.62,-98.48 -316.36,-119.84 -169.18,-29.45 -447.52,-86.79 -608.1,16.26l0.13 16.38z"/>
    <path class="fil8" d="M6821.46 3276.25c-18.08,-37.74 -77.41,-70.41 -140.9,-98.82 -63.48,-28.43 -131.12,-52.6 -202.66,-60.36 -71.54,-7.77 -146.98,0.88 -219,29.74 -72.04,28.85 -140.67,77.89 -195.85,128.35 -55.18,50.46 -96.92,102.35 -166.17,187.68 -69.27,85.33 -166.05,204.08 -265.63,317.34 -99.59,113.24 -202,220.97 -301.78,313.22 -99.79,92.26 -196.95,169.04 -313.09,227 -116.14,57.95 -251.27,97.07 -368.61,106.7 -117.33,9.63 -216.88,-10.22 -310.09,-41.05 -93.21,-30.83 -180.1,-72.63 -242.96,-126.54 -62.86,-53.93 -101.7,-119.96 -115.68,-177.27 -13.98,-57.31 -3.1,-105.88 16.13,-155.3 19.23,-49.42 46.81,-99.68 75.67,-165.9 28.84,-66.22 58.95,-148.4 80.85,-217.1 21.9,-68.7 35.59,-123.93 45.14,-181.6 9.55,-57.67 14.97,-117.8 16.84,-164.12 1.87,-46.34 0.19,-78.88 -39.79,-114.59 -39.98,-35.72 -118.28,-74.63 -186.89,-114.61 -68.63,-39.98 -127.61,-81.06 -192.34,-126.82 -64.74,-45.77 -135.24,-96.26 -197.44,-152.47 -62.19,-56.21 -116.08,-118.15 -165.42,-184.25 -49.35,-66.09 -94.15,-136.36 -130.2,-188.59 -36.05,-52.23 -63.35,-86.43 -84.85,-96.82 -21.5,-10.38 -37.22,3.05 -100.78,57.36 -63.56,54.32 -174.97,149.54 -322.3,290.21 -147.33,140.67 -330.57,326.79 -496.68,519.05 -166.11,192.26 -315.09,390.65 -459.4,661.37 -144.31,270.71 -283.95,613.78 -351.33,968.23 -67.38,354.45 -62.48,720.3 -43.39,1018.68 19.09,298.38 52.37,529.29 104.61,758.57 52.24,229.28 123.46,456.93 208.53,669.77 85.06,212.84 183.98,410.87 274.44,570.73 90.47,159.87 172.49,281.58 185.57,263.39 13.07,-18.19 -42.8,-176.25 -72.46,-401.82 -29.66,-225.56 -33.11,-518.63 20.34,-766.87 53.44,-248.24 163.77,-451.66 280.99,-596.47 117.23,-144.81 241.35,-231.01 351.68,-268.94 110.33,-37.92 206.86,-27.58 293.06,17.24 86.19,44.82 162.05,124.13 236.18,227.57 74.13,103.43 146.53,231 202.97,327.39 56.43,96.41 96.9,161.63 137.65,98.2 40.75,-63.42 81.78,-255.48 145.94,-438.91 64.16,-183.42 151.45,-358.2 258.53,-541.29 107.09,-183.09 233.95,-374.51 371.69,-513.26 137.74,-138.76 286.33,-224.87 419.22,-278.16 132.89,-53.29 250.07,-73.75 369.99,-67.01 119.93,6.73 242.6,40.67 329.77,69.11 87.16,28.44 138.8,51.38 185.89,26.24 47.09,-25.15 89.61,-98.39 156.73,-211.59 67.12,-113.21 158.86,-266.37 226.55,-396.26 67.7,-129.89 111.35,-236.51 188.6,-345.65 77.25,-109.15 188.08,-220.81 272.65,-310.8 84.57,-89.99 142.87,-158.29 183.62,-213.84 40.76,-55.56 63.94,-98.36 45.86,-136.09z"/>
    <path class="fil9" d="M7119.78 9530.94c73.01,-14.86 207.71,-126.78 335.39,-191.37 127.68,-64.59 248.35,-81.81 325.93,-45.62 77.58,36.21 112.06,125.85 117.23,229.28 5.17,103.43 -18.96,220.66 -64.09,341.76 -45.13,121.1 -111.25,246.07 -85.96,286.33 25.29,40.25 142,-4.23 326.76,-94.3 184.77,-90.08 437.6,-225.74 630.51,-364.53 192.91,-138.79 325.92,-280.71 517.04,-518.16 191.13,-237.45 440.38,-570.42 615.08,-861.13 174.71,-290.7 274.85,-539.11 359.55,-744.71 84.71,-205.59 153.94,-368.36 185.12,-491.98 31.18,-123.62 24.3,-208.1 23.34,-273.18 -0.95,-65.08 4.04,-110.77 -44.79,-166.16 -48.82,-55.39 -151.46,-120.47 -236.41,-158.29 -84.94,-37.82 -152.19,-48.38 -224.2,-37.82 -72.02,10.55 -148.81,42.23 -206.83,106.9 -58.03,64.68 -97.29,162.37 -122.12,261.07 -24.82,98.7 -35.22,198.4 -38.92,317.71 -3.71,119.32 -0.74,258.23 0.52,339.39 1.26,81.17 0.79,104.57 -29.17,109.24 -29.94,4.66 -89.37,-9.4 -174.71,-30.78 -85.33,-21.37 -196.56,-50.04 -335.29,-53.46 -138.72,-3.41 -304.95,18.43 -396.32,53.61 -91.37,35.18 -107.87,83.7 -131.5,136.29 -23.63,52.59 -54.37,109.26 -84.05,193.28 -29.68,84.03 -58.28,195.42 -68.51,311.17 -10.23,115.75 -2.09,235.85 3,315.41 5.1,79.56 7.16,118.59 6.61,153.58 -0.55,34.98 -3.7,65.95 -71.06,53.25 -67.37,-12.69 -198.95,-69.05 -290.9,-102.23 -91.95,-33.18 -144.26,-43.2 -221,-47.43 -76.74,-4.24 -177.91,-2.71 -272.3,22.12 -94.38,24.84 -181.99,72.98 -251.27,144.78 -69.28,71.8 -120.25,167.26 -149.26,280.62 -29.01,113.35 -36.05,244.6 -33.91,351.32 2.14,106.73 13.47,188.93 86.48,174.06z"/>
    <path class="fil10" d="M7040.88 1431.19c-72.54,-15.75 -22.94,20.23 74.52,90.92 97.47,70.69 242.79,176.09 377.51,277.05 134.72,100.97 258.84,197.51 362.27,314.74 103.44,117.23 186.18,255.14 251.69,389.6 65.51,134.46 113.78,265.48 148.25,403.4 34.48,137.91 55.17,282.72 65.52,399.94 10.34,117.23 10.34,206.87 -1.72,313.75 -12.07,106.88 -36.21,231 -24.13,292.88 12.07,61.88 60.33,61.5 135.03,60.94 74.71,-0.57 175.85,-1.33 284.59,-9.93 108.75,-8.6 225.1,-25.04 314.96,-42.93 89.86,-17.88 153.23,-37.22 241.83,-100.44 88.59,-63.23 202.42,-170.35 282.05,-254.47 79.63,-84.12 125.07,-145.23 139.09,-188.75 14.03,-43.52 -3.37,-69.43 -55.84,-143.09 -52.48,-73.67 -140.04,-195.09 -223.14,-297.34 -83.09,-102.23 -161.72,-185.3 -265.4,-280.33 -103.67,-95.03 -232.37,-202.03 -395.37,-318.23 -163.01,-116.19 -360.31,-241.55 -574.32,-369.25 -214.01,-127.71 -444.72,-257.76 -657.42,-356.51 -212.71,-98.75 -407.41,-166.23 -479.96,-181.96z"/>
    <path class="fil11" d="M4095.88 3846c60.04,-4.14 151.27,62.78 262.4,96.24 111.13,33.45 242.14,33.45 383.51,7.6 141.36,-25.85 293.06,-77.58 481.78,-155.55 188.71,-77.97 414.43,-182.19 572.32,-285.59 157.87,-103.39 247.92,-205.97 234.3,-188.98 -13.63,16.98 -130.92,153.52 -238.81,300.03 -107.89,146.49 -206.37,302.94 -363.88,433.08 -157.51,130.13 -374.05,233.95 -535.8,297.02 -161.75,63.06 -268.7,85.37 -374.03,81.67 -105.33,-3.7 -209.02,-33.42 -291.13,-79.74 -82.12,-46.32 -142.63,-109.26 -180.44,-170.58 -37.8,-61.31 -52.87,-120.99 -45.98,-188.43 6.89,-67.44 35.74,-142.63 95.79,-146.76z"/>
    <path class="fil12" d="M10078.9 6273.47c-32.03,27.38 15.95,108.01 46.4,249.46 30.45,141.45 43.37,343.74 34.39,560.43 -8.97,216.69 -39.85,447.79 -57.28,590.56 -17.42,142.77 -21.4,197.21 -2.12,173.72 19.27,-23.48 61.8,-124.91 102.52,-259.56 40.73,-134.65 79.65,-302.52 113.16,-438.85 33.52,-136.32 61.61,-241.11 74.51,-331.93 12.9,-90.82 10.59,-167.67 -9.94,-215.77 -20.52,-48.09 -59.26,-67.44 -69.89,-113.27 -10.62,-45.83 6.89,-118.14 -40.38,-167.22 -47.28,-49.09 -159.32,-74.95 -191.36,-47.57z"/>
    <path class="fil13" d="M5712.53 1739.12c46.82,28.26 128.92,66.03 211.54,68.8 82.63,2.76 165.77,-29.47 235.65,-68.9 69.87,-39.45 126.46,-86.1 182.79,-133.83 56.34,-47.75 112.43,-96.58 168.73,-138.91 56.29,-42.33 112.78,-78.18 166.69,-107.8 53.93,-29.62 105.3,-53.02 149.79,-75.27 44.51,-22.24 82.13,-43.33 77.68,-59.13 -4.45,-15.81 -50.98,-26.35 -103.12,-29.32 -52.13,-2.97 -109.86,1.62 -161,11.29 -51.14,9.67 -95.7,24.4 -174.58,53.73 -78.86,29.32 -192.04,73.23 -267.6,110.27 -75.55,37.04 -113.47,67.2 -158.29,90.05 -44.82,22.84 -96.54,38.35 -148.26,65.51 -51.72,27.15 -103.43,65.94 -145.1,92.5 -41.67,26.58 -73.29,40.91 -83.31,57.46 -10.03,16.54 1.54,35.3 48.38,63.56z"/>
    <path class="fil14" d="M4964.87 852c-26.65,14.1 -70.12,37.98 -120.28,71.54 -50.16,33.56 -107,76.81 -151.1,122.95 -44.09,46.15 -75.45,95.18 -104.48,144.71 -29.04,49.52 -55.76,99.51 -76.45,145.63 -20.68,46.11 -35.33,88.35 -43.52,133.18 -8.19,44.82 -9.91,92.22 -6.89,125.41 3.01,33.19 10.77,52.15 32.2,57.1 21.43,4.96 56.53,-4.09 121.06,-51.49 64.53,-47.41 158.48,-133.16 217.81,-217.13 59.32,-83.98 84.01,-166.17 105.12,-233.22 21.11,-67.07 38.63,-118.99 53.68,-162.46 15.06,-43.47 27.64,-78.5 30.42,-103.58 2.79,-25.08 -4.24,-40.23 -12.66,-45.64 -8.43,-5.41 -18.26,-1.09 -44.91,13.01z"/>
    <path class="fil2 str5" d="M2165.2 3253.26c64.75,-56.16 173.91,-150.13 277.08,-240.3 103.16,-90.17 200.35,-176.52 296.12,-243.04 95.77,-66.52 190.14,-113.18 253.33,-143.13 63.19,-29.96 95.21,-43.22 124.32,-45.96 29.1,-2.75 55.29,5.03 84.41,33.44 29.11,28.43 61.15,77.51 107.82,124.34 46.68,46.84 108,91.42 206.77,121.5 98.77,30.08 234.99,45.65 346.35,78.9 111.35,33.23 197.84,84.15 254.91,116.94 57.07,32.8 84.72,47.51 98.95,79.11 14.22,31.61 15.01,80.13 13.82,135.26 -1.2,55.14 -4.39,116.88 -15.31,151.21 -10.93,34.32 -29.6,41.21 -141.87,18.91 -112.27,-22.31 -318.12,-73.82 -485.49,-133.4 -167.36,-59.59 -296.23,-127.25 -377.76,-179.57 -81.54,-52.33 -115.75,-89.33 -136.22,-110.34 -20.47,-21 -27.22,-26.01 -123.89,41.3 -96.68,67.3 -283.28,206.94 -466.22,361.66 -182.94,154.71 -362.23,324.52 -508.55,500.14 -146.32,175.62 -259.66,357.05 -345,515.98 -85.33,158.91 -142.65,295.33 -102.36,159.88 40.3,-135.45 178.22,-542.75 283.38,-796.39 105.16,-253.64 177.57,-353.62 223.95,-412.78 46.37,-59.17 66.71,-77.52 131.46,-133.68z"/>
    <path class="fil1 str6" d="M2256.09 3127.52c60.77,-85.55 211.49,-272.23 324.75,-398.66 113.26,-126.44 189.06,-192.62 269.25,-261.43 80.19,-68.81 164.78,-140.25 225.65,-185.87 60.87,-45.63 98.04,-65.45 141.98,-50.94 43.92,14.51 94.63,63.35 137.49,127.1 42.86,63.75 77.9,142.42 133.73,218.76 55.83,76.33 132.46,150.33 213.6,214.51 81.13,64.18 166.77,118.52 225.15,157.26 58.38,38.73 89.48,61.85 116.65,77.47 27.17,15.62 50.39,23.74 66.06,27.58 15.68,3.82 23.8,3.37 -41.04,-10.16 -64.85,-13.53 -202.69,-40.15 -347.66,-89 -144.98,-48.86 -297.09,-119.97 -396.85,-189.37 -99.75,-69.39 -147.16,-137.07 -175.16,-169.16 -28.02,-32.08 -36.63,-28.55 -55.59,-20.79 -18.96,7.76 -48.27,19.74 -139.64,75.73 -91.36,55.99 -244.79,155.98 -371.93,251.87 -127.14,95.9 -227.99,187.72 -293,241.4 -65.02,53.69 -94.21,69.24 -33.44,-16.32z"/>
   </g>
   <g id="_847265384">
    <path class="fil15 str7" d="M4298.52 1711.8c-42.74,81.36 -85.46,162.71 -123.72,274.3 -38.25,111.58 -72.01,253.4 -76.29,385.96 -4.28,132.56 20.94,255.84 47.7,373.89 26.75,118.05 55.03,230.87 65.96,340.87 10.93,109.99 4.51,217.19 -23.79,338.98 -28.32,121.8 -78.53,258.18 -132.54,367.34 -54.03,109.15 -111.86,191.04 -101.69,280.38 10.19,89.33 88.37,186.1 184.88,254.15 96.51,68.05 211.33,107.39 319.51,123.47 108.16,16.08 209.68,8.91 340.4,-25.2 130.72,-34.13 290.64,-95.19 449.28,-221.11 158.62,-125.92 315.99,-316.7 450.58,-486.58 134.6,-169.89 246.45,-318.89 333.96,-417.42 87.52,-98.52 150.72,-146.57 222.73,-174.22 72,-27.66 152.82,-34.94 226.32,-25.97 73.51,8.97 139.7,34.2 202.92,72.53 63.21,38.35 123.46,89.8 183.7,141.28"/>
    <path class="fil15 str7" d="M9723.77 3360.28c-111.65,164.24 -138.82,224.96 -316.92,369.05 -178.1,144.09 -444.02,259.92 -745.54,265.64 -301.52,5.73 -638.67,-98.65 -860.76,-204.37 -222.09,-105.71 -329.15,-212.77 -422.31,-332.68 -93.14,-119.93 -172.39,-252.7 -208.12,-333.34 -35.71,-80.63 -27.91,-109.1 -140.15,11.6 -525.71,572.04 -1065.01,1225.87 -1305.73,1973.32 -485.35,1507.17 11.4,3325.39 1031.05,4504.5 211.82,244.94 282.5,280.04 315.02,257.34 42.89,-29.91 -23.91,-240.43 -46.21,-489.95 -20.61,-230.65 -3.19,-494.64 174.04,-680.12 157.31,-164.62 356.35,-171.12 566.32,-149.02 374.02,54.26 510.15,187.17 551.68,199.09 29.54,8.48 17.02,-99.02 -21.99,-427.8 -44.9,-605.92 237.31,-959.3 840.31,-832.41 92.3,19.42 179.89,46.65 244.54,68.89 78.68,27.07 134.39,61.66 137.93,59.58 18.69,-10.94 19.54,-43.41 19.64,-56.35 0.31,-44.9 -2.02,-116.83 -5.85,-218.36 -25.2,-668.02 89.91,-1118.9 751.81,-830.16 66.78,29.13 51.23,25.21 116.21,58.02"/>
    <path class="fil15 str7" d="M4212.17 3086.82c-409.39,-175.18 -690.69,-362.88 -967.66,-861.72 -22.53,-40.57 -45.9,-30.9 -77.64,-17.77 -42.56,17.61 -387.21,317.91 -423.79,355.08 -508.2,516.37 -811.71,954.86 -1024.75,1424.19 -222.77,490.75 -342.31,1017.66 -289.66,1815.86 73.95,1121.42 555.63,2157.57 1387.32,2919.71 26.26,24.06 446.45,399.93 448.62,289.6 0.63,-32.03 -59.95,-126.42 -74.66,-162.42 -76.82,-188.18 -132.19,-456.19 -102.16,-746.86 27.9,-270.02 179.08,-429.97 426.3,-388.41l103.37 17.38"/>
    <path class="fil15 str7" d="M4852.84 1414.7c579.77,-246.47 901.79,-275.36 1517.66,-182.46"/>
    <path class="fil15 str7" d="M6757.16 1329.89c243.11,66.92 509.08,154.27 745.68,251.97 322.29,133.09 590.08,285.43 874.77,475.11 284.69,189.67 586.26,416.68 795.4,612.14 209.14,195.46 325.81,359.39 442.49,523.31"/>
    <path class="fil15 str7" d="M4540 1663.49c95.31,-47.27 206.48,-120.36 267.07,-185.53 60.57,-65.18 70.54,-122.47 93.39,-205.25 22.85,-82.77 58.55,-191.04 86.68,-273.19 28.11,-82.14 48.62,-138.18 63.93,-167.62 15.31,-29.47 25.41,-32.35 -22.21,-11.59 -47.61,20.76 -152.94,65.16 -250.41,135.59 -97.47,70.41 -187.09,166.85 -255.68,248.72 -68.58,81.87 -116.14,149.16 -152.51,227.7 -36.38,78.53 -61.56,168.3 -73.76,223.73 -12.2,55.43 -11.43,76.54 28.68,76.36 40.1,-0.18 119.54,-21.63 214.84,-68.9z"/>
    <path class="fil15 str7" d="M5639.14 1705.94c33.2,58.59 109.11,105.83 192.65,126.06 83.55,20.22 174.73,13.43 262,-29.44 87.27,-42.88 170.62,-121.84 248.97,-196.3 78.35,-74.46 151.69,-144.43 234.24,-198.35 82.55,-53.92 174.32,-91.77 257.6,-125.88 83.27,-34.11 158.07,-64.44 171.22,-82.18 13.15,-17.73 -35.34,-22.85 -162.62,-16.62 -127.26,6.23 -333.31,23.82 -514.18,54.6 -180.87,30.79 -336.55,74.75 -449.7,121.9 -113.13,47.14 -183.75,97.46 -223.8,157.57 -40.06,60.12 -49.58,130.04 -16.38,188.63z"/>
    <path class="fil15 str7" d="M6494.87 9283.37c-726.03,658.43 -1830.72,663.06 -2730.91,433.16 -700.85,-188.16 -1072.6,-502.41 -1576.26,-1001.07 -291.06,-288.15 274.58,533.93 309.93,578.61 527.73,667.06 1349.5,1103.25 2174.75,1269.47 1289.96,247.41 2627.14,6.91 3740.83,-690.13 569.44,-362.21 1011.39,-823.48 1352.38,-1356.95 340.99,-533.46 581.01,-1139.13 649.12,-1869.6 68.11,-730.47 -35.7,-1585.75 -197.55,-2182.29 -161.84,-596.54 -381.75,-934.35 -601.66,-1272.15"/>
    <path class="fil15 str7" d="M5779.04 4954.04c-426.11,-242.24 -780.82,-272.97 -1189.78,48.31 -700.94,550.68 -1098.71,1727.71 -990.04,2604.98 122.39,987.97 749.2,1741.4 1802,1719.3 374.74,-7.88 603.95,-122.1 890.69,-349.81"/>
    <path class="fil15 str7" d="M5434.57 2739.68c-54.28,-33.81 -159.11,24.37 -216.03,82.95 -56.93,58.58 -65.97,117.56 -62.66,184.29 3.31,66.73 18.97,141.19 77.77,145.51 58.8,4.32 160.76,-61.52 209.87,-157.34 49.09,-95.82 45.35,-221.61 -8.94,-255.41z"/>
    <path class="fil16 str8" d="M4612.23 4036.37c-4.77,-11.78 -22.77,-15.61 -40.21,-8.55 -17.45,7.06 -27.72,22.33 -22.95,34.11 4.77,11.78 22.77,15.62 40.22,8.56 17.44,-7.06 27.71,-22.33 22.95,-34.12z"/>
    <path class="fil16 str8" d="M4130.77 4007.67c7.44,-10.31 1.1,-27.59 -14.15,-38.6 -15.25,-11.02 -33.65,-11.58 -41.09,-1.28 -7.44,10.31 -1.11,27.59 14.14,38.6 15.26,11.01 33.65,11.57 41.09,1.27z"/>
   </g>
   <path class="fil17" d="M1307.64 8241.89c-73.01,-117.35 -175.07,-154.4 -266.46,-97.55 -85.43,53.16 -72.05,139.63 -27.76,259.54 29.25,79.47 34.14,108.02 6.33,125.33 -22.52,14.01 -53.05,3.32 -76.67,-34.65 -27.49,-44.18 -40.57,-102.12 -35.84,-165.38l-118.17 -9.79c-8.37,75.12 7.76,151.26 57.58,231.33 67,107.7 170.82,144.61 258.23,90.22 91.39,-56.86 71.07,-148.59 29.79,-263.67 -27.06,-78.91 -34.85,-104.71 -7.7,-121.61 24.51,-15.24 55.9,-3.17 83.39,41.01 36.08,57.98 47.1,122.95 39.45,191.86l117.82 19.57c13.6,-88.88 -7.59,-182 -60,-266.22zm-232.04 -401.87l-61.68 -124.6 -373.29 184.76 -75.38 -152.3 -106.95 52.94 212.06 428.46 106.96 -52.93 -75.02 -151.57 373.29 -184.75zm-255.25 -632.55c-49.95,-154.75 -213.16,-246.44 -356.41,-200.19 -143.26,46.26 -221.28,215.84 -171.33,370.58 50.21,155.52 212.68,247.45 355.93,201.2 143.26,-46.25 222.01,-216.07 171.81,-371.59zm-115.05 37.15c26.23,81.24 -19.83,172.16 -100.74,198.28 -80.15,25.88 -170.67,-20.94 -196.91,-102.18 -26.23,-81.24 20.07,-171.37 100.25,-197.25 80.89,-26.12 171.17,19.92 197.4,101.16zm-50.34 -543.72l-22.54 -138.01 -355.05 -68.86 314.79 -177.47 -22.54 -138.01 -554.92 -73.28 24.25 148.44 343.99 30.31 -311.62 167.9 24.26 148.44 348.98 60.79 -316.48 138.2 24.26 148.44 502.61 -246.88zm-119.64 -1180.23l-1.21 -156.1 -534.11 225.33 1.22 156.1 537.56 216.94 -1.22 -156.1 -82.16 -33.51 -1.71 -217.89 81.62 -34.78zm-180.86 212l-165.1 -66.19 164.04 -68.76 1.06 134.96zm233.37 -937.03l-192.16 114.45c-18.75,-81.07 -76.75,-137.35 -158.27,-145.29 -107.9,-10.51 -191.79,70.36 -203.77,193.37l-25.13 258.14 533.31 51.92 13.48 -138.39 -166.9 -16.24 5.35 -55.03 178.8 -105.94 15.28 -156.99zm-444.75 294.07l10.48 -107.61c4.65,-47.75 32.72,-78.5 69.98,-74.88 37.26,3.63 58.88,39.22 54.24,86.97l-10.48 107.62 -124.21 -12.09zm466.17 -377.88l95.57 -463.44 -116.88 -24.1 -56.98 276.31 -253.98 -336.29 -97.78 -20.17 -93.6 453.89 116.88 24.1 55.17 -267.55 253.66 337.87 97.95 19.37zm188.44 -733.84l49.88 -130.65 -172.7 -65.92 -250.79 -327.22 -55.08 144.31 164.35 203.73 -256.27 37.07 -57.12 149.63 405.04 -76.88 172.69 65.93zm269.42 -611.81c62.86,-123.1 41.95,-229.64 -53.9,-278.59 -89.61,-45.75 -156.79,10.31 -236.66,110.11 -53,66.05 -74.92,84.98 -104.09,70.08 -23.63,-12.06 -30.21,-43.73 -9.88,-83.56 23.67,-46.34 66.54,-87.43 123.18,-116.01l-52.57 -106.28c-68.68,31.58 -125.58,84.69 -168.47,168.67 -57.69,112.96 -35.76,220.93 55.93,267.76 95.86,48.96 163.96,-15.78 241.24,-110.51 53.64,-63.89 71.73,-83.87 100.21,-69.33 25.7,13.13 31.56,46.25 7.9,92.59 -31.07,60.82 -81.03,103.78 -144.01,132.78l44.01 111.03c83.16,-34.22 151.99,-100.4 197.11,-188.74zm129.98 -277.9l258.88 -396.09 -99.9 -65.29 -154.34 236.16 -112.94 -406 -83.58 -54.63 -253.53 387.93 99.88 65.28 149.46 -228.66 112.07 407.36 84.01 53.94zm279.93 -1093.77l-92.5 -75.4 -277.91 340.95 415.35 338.55 277.9 -340.94 -92.49 -75.39 -190.07 233.18 -73.16 -59.63 172.6 -211.75 -92.49 -75.39 -172.6 211.75 -64.69 -52.73 190.07 -233.18zm405.13 173.4l98.43 -98.18 -223.62 -224.21 396.31 51.96 97.87 -97.6 -378.4 -379.4 -97.87 97.61 223.63 224.21 -396.32 -51.97 -98.44 98.18 378.41 379.4zm483.43 -453.27l107.78 -87.82 -338.47 -415.41 -107.79 87.82 338.48 415.41zm351.29 -770.7l-65.96 -99.45 -366.55 243.14 296.2 446.55 366.55 -243.15 -65.96 -99.44 -250.7 166.28 -52.16 -78.65 227.65 -151 -65.97 -99.45 -227.65 151.01 -46.13 -69.55 250.69 -166.28zm780.59 55.49c146.94,-69.65 216.65,-243.38 152.17,-379.41 -64.48,-136.02 -242.76,-191.35 -389.7,-121.7 -147.67,70 -217.72,243.03 -153.24,379.06 64.48,136.02 243.09,192.06 390.77,122.06zm-51.78 -109.25c-77.15,36.57 -173.26,2.72 -209.68,-74.11 -36.08,-76.11 -1.43,-171.95 75.72,-208.52 77.14,-36.57 172.53,-2.37 208.6,73.75 36.42,76.83 2.5,172.31 -74.65,208.87zm450.81 -87.99l133.46 -41.74 18.21 -361.2 220.02 286.68 133.46 -41.75 -5.55 -559.71 -143.56 44.9 18.42 344.84 -210.09 -284.89 -143.55 44.91 -11.07 354.06 -181.37 -293.86 -143.56 44.9 315.16 462.86zm938.67 -253.01c158.98,-34.14 266.65,-187.27 235.06,-334.45 -31.59,-147.19 -192.47,-241.89 -351.44,-207.76 -159.79,34.3 -267.61,186.68 -236.01,333.86 31.59,147.18 192.62,242.64 352.4,208.35zm-25.37 -118.21c-83.47,17.92 -169.28,-37.04 -187.12,-120.17 -17.69,-82.36 38.01,-167.71 121.49,-185.63 83.46,-17.91 168.47,37.23 186.15,119.59 17.84,83.12 -37.05,168.3 -120.52,186.21z"/>
   <path class="fil17" d="M9188.27 10882.13c128.53,-84.13 167.49,-261.59 85.05,-387.54 -82.44,-125.95 -260.26,-160.58 -388.78,-76.45 -129.17,84.56 -168.57,261.37 -86.13,387.31 82.45,125.95 260.68,161.24 389.86,76.68zm-66.21 -101.15c-67.49,44.17 -163.98,21.57 -210.54,-49.56 -46.14,-70.48 -28.24,-167.96 39.24,-212.13 67.47,-44.17 163.32,-21.15 209.46,49.33 46.57,71.13 29.31,168.19 -38.16,212.36zm464.38 -189.68l98.75 -87.73 -136.92 -332.21 313.2 175.6 98.75 -87.74 -241.61 -502.1 -106.23 94.37 161.94 303.71 -303.76 -177.71 -106.23 94.37 140.13 323.1 -282.53 -196.6 -106.22 94.38 470.73 298.56zm718.11 -684.84c98.97,-117.48 85.36,-298.67 -29.76,-395.65 -115.13,-96.99 -295.39,-79.12 -394.37,38.36 -99.46,118.07 -86.46,298.75 28.68,395.74 115.12,96.98 295.98,79.63 395.45,-38.45zm-92.46 -77.89c-51.97,61.69 -150.89,67.73 -215.9,12.96 -64.42,-54.27 -75.27,-152.79 -23.3,-214.47 51.96,-61.67 150.38,-67.13 214.8,-12.86 65.02,54.77 76.36,152.69 24.4,214.37zm375.06 -274.79c25.65,-33.57 17.97,-83.89 -17.98,-111.36 -33.47,-25.57 -84.05,-19.75 -109.69,13.83 -27.98,36.62 -19.83,86.33 13.64,111.9 35.95,27.46 86.06,22.25 114.03,-14.36zm250.46 -372.98c81.24,-130.36 42,-307.77 -85.76,-387.39 -127.75,-79.62 -303.65,-36.28 -384.89,94.09 -81.65,131.03 -43.07,308.01 84.69,387.63 127.75,79.62 304.31,36.69 385.96,-94.34zm-102.61 -63.94c-42.65,68.44 -139.71,88.51 -211.85,43.55 -71.5,-44.55 -96.24,-140.52 -53.58,-208.96 42.64,-68.44 139.3,-87.85 210.78,-43.3 72.16,44.96 97.31,140.28 54.66,208.72zm483.34 -670.67l-217.11 31.67c9.5,-78.5 -25.81,-149.3 -99.11,-185.83 -97.04,-48.36 -202.09,-7.19 -254.16,97.3l-109.29 219.29 479.59 239.01 58.59 -117.55 -150.09 -74.8 23.3 -46.75 201.81 -29 66.47 -133.35zm-512.17 99.16l45.55 -91.43c20.22,-40.56 56.61,-57.6 90.11,-40.9 33.51,16.7 41.8,56.01 21.59,96.57l-45.56 91.43 -111.69 -55.67zm432.11 -484.45l40.26 -104.66 62.61 24.08c7.37,30.82 5.81,63.13 -5.23,91.8 -29.5,76.71 -121.57,116.19 -200.91,85.67 -78.62,-30.24 -120.51,-121.23 -91.01,-197.95 16.27,-42.29 52.91,-76.75 96.61,-90.39l-46.34 -120.69c-72.9,28.75 -134.16,92.41 -163.11,167.69 -55.97,145.53 14.82,313.47 155.32,367.5 140.5,54.04 306.31,-22.91 362.28,-168.44 28.96,-75.27 26.15,-163.57 -9.43,-234.04l-208.93 -80.36 -86.03 223.67 93.91 36.11zm325.5 -321.51c11.33,-40.7 -14.52,-84.56 -58.1,-96.68 -40.57,-11.29 -85.36,12.91 -96.68,53.62 -12.36,44.4 13.7,87.52 54.27,98.81 43.58,12.12 88.16,-11.35 100.51,-55.75zm47.11 -187.54l22.81 -129.35 -165.13 -29.14 19.74 -111.94c20.28,-114.97 -39.67,-210.56 -146.44,-229.4 -106.78,-18.83 -195.83,50.47 -216.11,165.43l-42.56 241.28 527.69 93.1zm-262.16 -179.63l-122.9 -21.68 17.76 -100.59c7.87,-44.63 37.93,-71.3 74.79,-64.8 36.87,6.5 55.98,41.85 48.1,86.47l-17.75 100.59zm250.5 -489.02l-415.28 -31.94 -10.07 130.95 534.26 41.09 29.58 -384.43 -118.99 -9.15 -19.5 253.47z"/>
  </g>
 </g>
</svg>
