<?xml version="1.0" encoding="UTF-8"?>
<!DOCTYPE svg PUBLIC "-//W3C//DTD SVG 1.1//EN" "http://www.w3.org/Graphics/SVG/1.1/DTD/svg11.dtd">
<!-- Creator: CorelDRAW -->
<svg xmlns="http://www.w3.org/2000/svg" xml:space="preserve" width="265.976mm" height="249.992mm" version="1.1" style="shape-rendering:geometricPrecision; text-rendering:geometricPrecision; image-rendering:optimizeQuality; fill-rule:evenodd; clip-rule:evenodd"
viewBox="0 0 26223.07 24647.17"
 xmlns:xlink="http://www.w3.org/1999/xlink"
 xmlns:xodm="http://www.corel.com/coreldraw/odm/2003">
 <defs>
  <style type="text/css">
   <![CDATA[
    .fil0 {fill:#FEFEFE;fill-rule:nonzero;fill-opacity:0.200000}
   ]]>
  </style>
 </defs>
 <g id="Warstwa_x0020_1">
  <metadata id="CorelCorpID_0Corel-Layer"/>
  <path class="fil0" d="M9713.49 3439.82c-38.63,75.51 -77.65,154.23 -117.52,240.16 -62.64,134.98 -123.53,281.14 -180.97,448.74l0 0.81c-64.47,188.02 -124.78,402.91 -168.71,625.15 -38.08,192.62 -64.04,388.79 -70.05,575.14 -6.47,201.1 9.91,398.51 38.3,592.1 29.36,200.26 70.46,391.29 112.7,577.61l36.96 160.74c76.59,333.24 150.44,654.47 182.58,978.03 19.08,191.9 23.07,380.54 10.03,573.29 -13.07,192.99 -43.03,390.7 -91.8,600.56 -46.94,201.9 -112.29,417.23 -188.63,628.82 -78.89,218.67 -168.45,430.43 -260.6,616.65 -37.69,76.16 -74.06,144.93 -108.97,210.98l-23.83 45.15c9.36,-2.14 18.88,-3.85 28.56,-5.09 54.17,-6.97 112.99,1.25 167.59,24.58 11.94,5.11 24.26,11.23 36.77,18.33 8.74,4.96 17.98,10.82 27.67,17.55l0.38 -0.57 5.69 4.87c59.63,43.09 102.89,101.18 124.55,160.23 31.6,86.28 23.61,177.76 -31.4,253.99l-12.58 17.44 -8.47 8.46 -0.12 -0.1c-41.21,44.32 -94.65,71.08 -154.17,80.58 -52.5,8.4 -109.34,2.39 -162.8,-17.89 -15.34,-5.81 -30.06,-12.46 -43.85,-19.93l-0.81 -0.82c-13.39,-7.28 -26.67,-15.59 -39.59,-24.92 -45.94,-33.18 -82.2,-75.57 -106.4,-120.67 -11.52,51.86 -15.68,101.66 -10.19,149.74 11.66,102.38 65.25,214.96 146.08,326.09 95.28,130.98 225.79,255.14 371.32,357.75 137.04,96.62 286.26,173.68 439.58,232.93 168.79,65.23 344.22,109.43 515.27,134.85 162.09,24.11 318.95,30.81 483.91,18.73 168.66,-12.35 346.27,-43.96 546.47,-96.2 202.26,-52.8 427.65,-126.69 664.9,-236.59 235.05,-108.87 480.99,-253.25 726.06,-447.76 250.62,-198.93 500.27,-449.15 740.41,-716.7 245.36,-273.38 481.12,-564.64 698.49,-839.01 119.42,-150.72 250.57,-318.66 374.46,-477.3 281.28,-360.19 524.72,-671.9 723.93,-896.18 151.7,-170.77 283.65,-298.83 410.37,-397.34 132.19,-102.74 259.91,-173.78 398.23,-226.92 132.67,-50.95 270.82,-83.37 407.87,-99.09 145.67,-16.7 291.77,-15.57 430.29,1.34 134.58,16.42 263.78,48.2 389.4,93.83 121.99,44.31 239.82,102.24 355.31,172.27 111.62,67.69 219.22,145.87 324.77,229.25 52.18,41.22 101.27,81.4 148.73,121 131.8,-146.5 263.78,-291.42 395.5,-434.74l0.81 -0.81c331.68,-356.64 469.87,-424.58 646.28,-260.52 57.37,53.36 84.25,118.3 120.57,206.13 6.42,15.53 13.54,32.73 31.82,73.98 57.87,130.63 154.17,307.78 275.44,502.03 109.07,174.7 238.49,362.91 378.61,543.31 145.31,187.07 299.96,362.86 500.32,529.3 202.22,167.98 457.02,332.14 804.94,497.73 384.07,182.83 877.17,364.52 1401.85,489.09 435.83,103.47 890.55,167.31 1318.08,159.2 439.44,-8.33 855.99,-92.87 1232.15,-226.91 418.73,-149.19 785.55,-360.23 1076.57,-595.67l0.81 0c25.39,-20.54 -12.5,9.87 30.74,-25.54l0.82 0 8.08 -6.62 0 518.99c-282.13,195.31 -612.9,368.37 -979.42,498.96 -413.45,147.32 -873.97,240.29 -1363.28,249.57 -467.88,8.87 -956.71,-58.89 -1420.06,-168.9 -554.58,-131.67 -1076.88,-324.24 -1484.41,-518.23 -377.68,-179.75 -660.62,-363.21 -890.74,-554.38 -232,-192.71 -404.44,-387.74 -563.44,-592.44 -147.43,-189.83 -285.36,-390.66 -402.91,-578.92 -131.7,-210.95 -237.71,-406.57 -302.94,-553.83 -6.87,-15.51 -21.62,-51.18 -35.07,-83.7 -16.08,-38.89 -12.42,-53.19 -20.2,-60.43 -70.07,-65.16 51.88,115.69 -61.13,238.63 -853.55,928.88 -1717.87,1923.64 -2465.1,2987.63 -742.87,1057.77 -1370.4,2184.25 -1756.33,3382.61 -517.69,1607.56 -687.51,3327.24 -563.52,5046.9 129.8,1800.3 582.12,3599.74 1294.82,5270.23l-449.19 0c-690.69,-1665.27 -1129.43,-3452.01 -1258.41,-5241.09 -127.57,-1769.26 48.15,-3541.64 582.94,-5202.3 37.82,-117.43 77.84,-234.15 119.95,-350.14 -605.42,-325.03 -1162.45,-505.96 -1707.22,-499.76 -583.51,6.65 -1166.03,230.49 -1796.32,725.63 -1084.11,851.7 -1941.86,2179.87 -2497.93,3642.99 -588.16,1547.58 -837.18,3241.24 -658.96,4680.03 51.53,416.04 130.39,816.76 235.91,1198.2 100.89,364.73 226.67,714.68 376.76,1046.45l-451.24 0c-125.96,-299.03 -234,-611.86 -323.76,-936.36 -63.08,-228.03 -116.99,-460.88 -161.61,-697.81l-193.79 -32.58c-31.24,-5.25 -60.49,-9.28 -87.75,-12.09 -287.69,-29.71 -519.72,44.1 -690.16,200 -179.28,163.99 -300.04,422.33 -355.37,751.54 -8.21,48.88 -14.86,97.78 -19.9,146.57 -12.3,119.14 -20.05,235.41 -23.66,348.57 -2.48,77.96 -3.11,155.4 -2.01,232.16l-413.07 0c-1.05,-80.71 -0.34,-162.46 2.3,-245.12 4.01,-125.91 12.29,-252.02 25.28,-377.7 6.23,-60.34 13.96,-117.88 23.13,-172.48 70.63,-420.21 235.32,-759.6 484.89,-987.88 258.37,-236.33 598.68,-349.39 1010.67,-306.84 38.74,4 76.66,9.11 113.66,15.32l55.5 9.34c-5.94,-42.93 -11.58,-85.96 -16.93,-129.11 -186.22,-1503.27 72.02,-3267.69 683.23,-4875.92 581.44,-1529.86 1483.76,-2922.9 2629.05,-3822.67 705.84,-554.49 1370.88,-805.32 2048.85,-813.04 606.44,-6.91 1212.61,182.58 1860.17,524.15 395,-968.47 930.83,-1885.99 1541.69,-2755.78 563.21,-801.96 1190.02,-1563.25 1828.59,-2286.44 -44.83,-37.54 -88.36,-73.3 -129.44,-105.76 -93.71,-74.02 -187.82,-142.56 -282.69,-200.1 -91.03,-55.2 -184.66,-101.15 -282.45,-136.66 -94.17,-34.2 -193.2,-58.3 -298.75,-71.17 -108.08,-13.19 -221.24,-14.17 -333.16,-1.34 -106.91,12.26 -211.31,36.26 -307.51,73.2 -96.88,37.22 -190.06,89.86 -291.4,168.63 -106.8,83.02 -221.09,194.42 -355.34,345.54 -201.22,226.53 -436.21,527.45 -707.74,875.14 -112.73,144.35 -231.89,296.94 -376.08,478.92 -222.33,280.63 -463.51,578.57 -714.68,858.43 -256.39,285.66 -522.96,552.83 -790.59,765.27 -273.24,216.86 -547.73,377.97 -810.24,499.56 -260.3,120.58 -509.74,202.21 -734.51,260.88 -226.87,59.19 -428.67,95.05 -620.92,109.13 -195.98,14.35 -381.69,6.49 -572.96,-21.97 -198.01,-29.44 -403.54,-81.55 -604.3,-159.13 -184.83,-71.43 -364.32,-164.04 -528.61,-279.88 -181.75,-128.16 -346.32,-285.38 -468.45,-453.27 -120.6,-165.79 -201.84,-345.26 -222.16,-523.57 -33.66,-295.51 94.89,-538.69 248.31,-828.89 34.54,-65.34 70.52,-133.39 104.12,-201.28 87.23,-176.29 170.67,-373.06 242.79,-572.94 69.76,-193.35 130.02,-392.47 174.05,-581.87 43.7,-188.03 70.49,-364.43 82.1,-535.83 8.83,-130.55 8.99,-257.93 1.24,-385.11 -635.32,-278.26 -1179.7,-573.65 -1679.39,-993.39l-0.39 0.47c-528.91,-444.39 -1000.4,-1023.44 -1466.25,-1862.47 -13.11,-23.61 3.53,13.11 5.96,27.37l1.86 4.38 -2.5 0.85c-32.43,13.42 -225.34,170.26 -454.24,362.05 -363.68,304.72 -793.08,682.36 -861.53,751.92 -822.36,835.57 -1478.48,1607.27 -2014.55,2359.04 -533.93,748.76 -949.37,1478.9 -1292.16,2234.06 -357.04,786.56 -631.34,1601.96 -795.22,2540.28 -164.47,941.64 -218.15,2008.16 -133.32,3294.44 99.88,1514.42 430.3,2979.83 977.53,4351.48 543.91,1363.38 1302.79,2635.53 2263.1,3772.47l-6.2 5.25 -525.27 0c-886.89,-1102.67 -1595.72,-2323.19 -2115.29,-3625.55 -563.7,-1412.96 -903.98,-2920.92 -1006.65,-4477.74 -87.16,-1321.52 -31.58,-2419.7 138.17,-3391.57 170.32,-975.19 455.22,-1822.25 825.98,-2639.03 353.24,-778.18 781.66,-1531.04 1332.62,-2303.67 548.79,-769.62 1218.67,-1557.78 2056.65,-2409.22 75.56,-76.79 520.88,-469.62 890.65,-779.45 252.54,-211.6 480.08,-390.94 560.36,-425.79l-0.08 -0.2 2.5 -0.85c201.42,-83.25 349.76,-144.58 512.61,148.75 439.01,790.7 879.53,1333.18 1370.75,1745.92l0 0.81c402.95,338.56 845.05,593.08 1351.74,827.92 -33.94,-183.53 -77.29,-372.16 -121.59,-564.94 -6.14,-26.72 -11.66,-50.68 -36.96,-162.36 -45.18,-199.35 -89,-402.59 -119.17,-608.35 -31.16,-212.44 -49,-433.01 -41.54,-664.96 6.93,-214.74 35.24,-432.7 76.52,-641.51 48.06,-243.18 113.54,-476.78 183.28,-680.19l0.25 0.09c62.82,-183.2 129.02,-342.17 196.91,-488.48 53.08,-114.4 110.26,-226.3 168.36,-337.62 -1.81,-21.17 -1.9,-43.28 -0.43,-66.47 3.12,-49.4 12.55,-102.04 26.03,-163.21l0.17 0.04c23.83,-108.24 61.67,-253.32 112.19,-406.57 39.24,-119.07 87.01,-245.29 143.18,-366.55 63.54,-137.19 137.69,-265.8 226.66,-396.99 88.21,-130.04 186.69,-256.88 300.75,-393.04 114.41,-136.55 247.53,-286.44 395.25,-434.09 147.36,-147.29 308.35,-290.65 478.16,-413.32 322.14,-232.77 662.17,-380.52 833.3,-454.86l50.12 -21.88c116.75,-51.17 168.81,-74.13 262.93,-25.09l0.34 -0.64c197.8,102.99 151.68,181.53 68.32,323.5 -3.12,5.3 -7.03,11.96 -20,36.92 -22.04,42.38 -48.12,104.7 -79.04,186.61 -32.82,86.93 -71.9,198.09 -117.69,331.91 -48.89,142.82 -106.73,315.94 -164.13,496.88 -45.25,142.64 -86.2,277.06 -115.79,384.31l-11.99 45c768.56,-302.41 1409.79,-479.3 2064.13,-554.97 763.26,-88.26 1535.51,-38.09 2540.65,111.76 246.76,-38.14 499.81,-69.07 737.93,-93.28 306.82,-31.17 591.55,-51.66 807.65,-62.22 218.26,-10.71 371.83,-11.37 468.42,-1.43 333.47,34.36 403.75,162.36 238.48,385.13 -58.1,78.34 -222.4,158.62 -426.79,245.42 261.16,78.02 525.5,161.83 787.44,250.34 401.33,135.61 799.65,282.93 1175.76,438.25 535.84,221.27 1024.59,457.58 1496.11,716.51 471.51,258.94 927.54,541.25 1397.48,854.35 486.18,323.9 988.65,681.96 1457.03,1042.43 433.53,333.65 836.37,668.27 1168.34,978.55 172.67,161.38 326.48,316.31 466.02,466.35 22.77,24.49 45.2,48.89 67.32,73.22l0 619.94 -6.68 5.43c-109.25,-133.9 -228.72,-272.17 -363.35,-416.92 -133.32,-143.33 -280.17,-291.28 -444.99,-445.31 -324.26,-303.07 -717.01,-629.35 -1139.2,-954.27 -457.79,-352.33 -952.05,-704.38 -1432.74,-1024.63 -460.14,-306.57 -906.67,-582.99 -1368.36,-836.54 -461.69,-253.53 -936.91,-483.53 -1454.01,-697.06 -367.35,-151.7 -756.95,-295.78 -1149.87,-428.55 -427.19,-144.35 -855.48,-274.67 -1261.66,-386.48l-27.46 12.76c-132.52,62.1 -265.78,132.39 -394.01,216.15l-0.81 0c-249.97,163.25 -480.97,382.79 -727.06,616.67l-8.28 7.87c-132.02,125.48 -268.27,254.75 -406.31,369.08 -145.63,120.63 -297.89,228.75 -458.93,307.86 -161.36,79.26 -325.92,126.06 -488.66,144.35 -171.99,19.32 -342.86,6.82 -506.55,-32.79 -162.34,-39.3 -317.13,-105.31 -446.69,-190.08 -133.37,-87.26 -243.57,-196.54 -313.83,-320.52 -74.88,-132.1 -102.85,-275.33 -90.42,-418.58 12.37,-142.59 65.08,-284.53 151.21,-413.8 79.89,-119.91 187.82,-228.34 329.47,-328.34 132.6,-93.62 295.77,-180.43 494.8,-263.35 131.99,-55.01 280.42,-108.6 442.88,-159.4 -451.53,-29.6 -860.44,-24.31 -1263.41,22.29 -711.45,82.27 -1413.27,294.05 -2308.24,670.59 -37.93,60.1 -84.55,120.9 -143.78,184.62 -105.17,113.16 -248.12,230.07 -404.25,338.54 -167.64,116.46 -354.78,226.13 -528.14,312.12 -139.59,69.22 -269.6,122.67 -383.9,161.43 -135.33,45.89 -253.74,72.49 -344.33,81.38 -12.87,1.24 -23.64,2.14 -32.05,2.61 -6.64,0.4 -16.67,0.63 -30,0.71zm16509.58 18615.06l0 438.05c-11.93,-4.39 -33.97,-12.15 -68.3,-23.95 -109.59,-37.7 -232.96,-78.01 -355.91,-113.58 -129.45,-37.46 -270.88,-74.08 -417.98,-105.02 -329.69,-69.37 -627.11,-92.29 -892.23,-72.64 -428.39,31.75 -769.99,176.6 -1024.59,416.98 -257.58,243.19 -431.82,588.44 -522.09,1017.4 -64.19,305.08 -85.86,652.17 -64.81,1035.05l-414.4 0c-20.87,-409.06 4.03,-784.28 74.52,-1119.23 107.88,-512.64 322.55,-931.32 643.5,-1234.32 323.9,-305.82 750.49,-489.51 1278.74,-528.66 301.42,-22.34 636.7,3.12 1005.55,80.73 154.46,32.49 306.93,72.08 448.74,113.12 117.66,34.04 220.89,66.61 309.27,96.07zm-15902.22 -19231.9c153.26,-76.02 321.34,-174.8 474.72,-281.36 134.83,-93.67 254.87,-190.95 337.87,-280.27 140.63,-151.33 180.26,-299.16 233.04,-496.17l24.36 -88.64c36.16,-131.08 77.33,-267.37 119.04,-398.86 52.99,-167.04 113.47,-347.58 167.36,-504.99 19.92,-58.22 38.78,-112.71 56.69,-163.54 -132.81,68.09 -280.94,152.98 -422.02,254.92 -148.63,107.37 -293.31,236.61 -427.98,371.22 -134.3,134.24 -259.65,275.66 -369.34,406.58 -110,131.3 -201.29,248.18 -276.48,359.04 -74.42,109.72 -137.39,219.35 -192.67,338.7 -47.62,102.8 -89.72,214.66 -125.37,322.85 -43.34,131.49 -75.97,254.38 -97.22,348.25 46.8,-10.51 101.93,-26.19 164.27,-47.32 99.1,-33.61 212.09,-80.09 333.71,-140.39zm519.23 7860.15l15.38 38.01 0 16.11c12.29,69.59 -5.04,139.35 -45.9,200.06 -35.48,52.74 -91.17,99.06 -158.71,126.53l0.12 0.28c-4.6,1.86 -9.23,3.63 -13.87,5.28l-24.95 10.1 -8.1 0c-53.1,13.5 -106.99,14.42 -154.86,4.25 -90.1,-19.18 -163.64,-74.9 -199.09,-162.53 -35.03,-86.61 -20.79,-177.06 30.51,-253.35 35.59,-52.9 91.55,-99.38 159.39,-126.82 67.4,-27.24 139.28,-32.75 201.01,-19.62 90.31,19.22 163.84,74.62 199.08,161.7zm2385.61 -3983.13c-0.47,-0.3 -3.99,-0.68 -9.84,-1.08 -19.15,-1.35 -42.28,1.8 -67.89,8.47 -30.09,7.83 -63.34,20.62 -98.09,37.07 -38.57,18.27 -77.73,40.86 -115.71,66.16 -30.97,20.64 -59.42,41.67 -84.64,62.44 -25.54,21.03 -49.89,43.43 -72.24,66.42 -21.08,21.69 -39.52,43.46 -55.58,65.33 -16.18,22.05 -29.03,42.36 -38.86,61.17 -12.3,23.49 -22.17,47.96 -29.99,73.32 -7.72,25.04 -13.25,51.21 -17.03,78.38 -3.82,27.44 -5.86,53.58 -6.53,78.86 -0.75,27.89 -0.08,58.55 1.54,91.25 1.35,27.29 3.9,58.13 8.13,93.01l0.1 -0.01c3.68,30.11 8.34,58.55 14.22,83.84l0 0.82c6.5,27.98 14.6,53.48 24.66,74.66 5.51,11.62 11,20.75 16.3,26.45 12.91,0.72 29.54,-1.89 48.91,-7.47 28.69,-8.27 61.56,-22.58 97.05,-42.26 43.48,-24.1 88.62,-55.65 132.82,-93.54 41.75,-35.8 82.12,-77.16 118.79,-123.13 18.38,-23.03 34.8,-45.53 48.85,-67.17 15.06,-23.19 28.42,-45.98 39.74,-68.06 15.48,-30.21 29.96,-65.27 43.24,-103.96 12.95,-37.7 23.09,-75.58 30.43,-112.8 11.79,-59.81 17.12,-116.93 16.02,-168.31 -1.01,-47.16 -7.3,-90.62 -18.81,-127.52 -5.92,-18.97 -12.77,-34.49 -20.43,-45.69 -2.65,-3.87 -4.45,-6.2 -5.18,-6.65zm19.3 -413.87c71.39,5.04 138.7,24.88 199.23,62.59 50.66,31.54 93.38,73.88 128.2,124.83 31.33,45.83 55.96,98.42 73.85,155.78 22.51,72.12 34.75,154.69 36.62,242.46 1.77,83.62 -5.68,170.5 -22.49,255.72 -11.15,56.59 -26.16,113 -45,167.83 -17.39,50.65 -39.85,103.39 -67.52,157.37 -19.23,37.52 -39.6,72.65 -60.8,105.29 -23.47,36.15 -47.4,69.34 -71.51,99.55 -53.03,66.47 -112.13,126.91 -173.83,179.8 -64.72,55.49 -133.02,102.9 -200.81,140.47 -61.38,34.02 -123.84,60.4 -184.47,77.87 -68.08,19.61 -133.33,27.94 -192.54,23.58 -50.73,-3.72 -97.19,-15.79 -139.72,-34.95 -42.29,-19.06 -79.9,-45.02 -113.27,-76.66 -44.65,-42.33 -79.69,-93.73 -106.93,-151.11 -23.15,-48.76 -40.62,-102.31 -53.62,-158.06l-0.18 0.04c-9.95,-42.77 -17.17,-85.58 -22.3,-127.56l0 -0.81c-4.5,-36.9 -7.67,-78.83 -9.85,-122.95 -1.94,-39.13 -2.65,-78.99 -1.54,-120.39 1.17,-44.02 4.24,-86.06 9.76,-125.79 6.63,-47.72 16.86,-95.34 31.6,-143.14 14.64,-47.47 34.03,-95.04 59.12,-142.93 21,-40.09 44.63,-78.33 71.24,-114.58 26.74,-36.41 57.52,-72.73 92.8,-109.04 31.26,-32.17 67.07,-64.94 106.23,-97.18 38.7,-31.86 78.65,-61.67 118.66,-88.33 53.4,-35.57 110,-68.06 167.51,-95.3 55.69,-26.36 113.27,-47.98 170.93,-62.98 68.69,-17.87 136.47,-25.94 200.63,-21.4zm938 -3241.1c36.34,64.13 100.21,125.15 181.08,178.08 92.08,60.24 202.01,107.14 317.2,135.02 116.77,28.27 239.55,37.08 364.08,23.09 117.96,-13.25 236.76,-46.95 352.68,-103.89 124.08,-60.95 250.6,-151.89 376.36,-256.06 133.39,-110.48 261.34,-231.87 385.27,-349.66l8.28 -7.87c259.44,-246.58 503.02,-478.07 786.4,-663.23l-0.25 -0.37c141.46,-92.41 293.01,-172.07 445.81,-243.68 67.4,-31.59 133.75,-61 198.87,-88.91 -136.32,10.21 -284.57,23.1 -438.54,38.75 -245.13,24.92 -503.11,56.57 -748.38,95.21l-39.62 6.47 0.02 0.13 -40.22 6.58 0.02 0.13 -40.83 6.84c-279.73,47.61 -541.74,105.5 -779.39,169.91 -246.14,66.72 -463.4,139.92 -644.53,215.4 -170.58,71.07 -307.61,143.47 -415.48,219.63 -98.81,69.75 -171.68,141.77 -222.64,218.25 -47.83,71.77 -76.85,147.72 -83.22,221.17 -5.45,62.87 5.96,124.26 37,179z"/>
 </g>
</svg>
