<?xml version="1.0"?>
<svg xmlns="http://www.w3.org/2000/svg" xmlns:xlink="http://www.w3.org/1999/xlink" version="1.1" width="420px" height="420px" viewBox="0 0 420 420"><defs><rect id="block" width="9.0000000000" height="9.0000000000" fill="#000000" fill-opacity="1"/></defs><rect x="0" y="0" width="420" height="420" fill="#ffffff" fill-opacity="1"/><use x="25.0000000000" y="25.0000000000" xlink:href="#block"/><use x="34.0000000000" y="25.0000000000" xlink:href="#block"/><use x="43.0000000000" y="25.0000000000" xlink:href="#block"/><use x="52.0000000000" y="25.0000000000" xlink:href="#block"/><use x="61.0000000000" y="25.0000000000" xlink:href="#block"/><use x="70.0000000000" y="25.0000000000" xlink:href="#block"/><use x="79.0000000000" y="25.0000000000" xlink:href="#block"/><use x="97.0000000000" y="25.0000000000" xlink:href="#block"/><use x="133.0000000000" y="25.0000000000" xlink:href="#block"/><use x="142.0000000000" y="25.0000000000" xlink:href="#block"/><use x="151.0000000000" y="25.0000000000" xlink:href="#block"/><use x="160.0000000000" y="25.0000000000" xlink:href="#block"/><use x="169.0000000000" y="25.0000000000" xlink:href="#block"/><use x="205.0000000000" y="25.0000000000" xlink:href="#block"/><use x="214.0000000000" y="25.0000000000" xlink:href="#block"/><use x="241.0000000000" y="25.0000000000" xlink:href="#block"/><use x="268.0000000000" y="25.0000000000" xlink:href="#block"/><use x="277.0000000000" y="25.0000000000" xlink:href="#block"/><use x="286.0000000000" y="25.0000000000" xlink:href="#block"/><use x="331.0000000000" y="25.0000000000" xlink:href="#block"/><use x="340.0000000000" y="25.0000000000" xlink:href="#block"/><use x="349.0000000000" y="25.0000000000" xlink:href="#block"/><use x="358.0000000000" y="25.0000000000" xlink:href="#block"/><use x="367.0000000000" y="25.0000000000" xlink:href="#block"/><use x="376.0000000000" y="25.0000000000" xlink:href="#block"/><use x="385.0000000000" y="25.0000000000" xlink:href="#block"/><use x="25.0000000000" y="34.0000000000" xlink:href="#block"/><use x="79.0000000000" y="34.0000000000" xlink:href="#block"/><use x="97.0000000000" y="34.0000000000" xlink:href="#block"/><use x="124.0000000000" y="34.0000000000" xlink:href="#block"/><use x="151.0000000000" y="34.0000000000" xlink:href="#block"/><use x="160.0000000000" y="34.0000000000" xlink:href="#block"/><use x="169.0000000000" y="34.0000000000" xlink:href="#block"/><use x="178.0000000000" y="34.0000000000" xlink:href="#block"/><use x="196.0000000000" y="34.0000000000" xlink:href="#block"/><use x="241.0000000000" y="34.0000000000" xlink:href="#block"/><use x="295.0000000000" y="34.0000000000" xlink:href="#block"/><use x="313.0000000000" y="34.0000000000" xlink:href="#block"/><use x="331.0000000000" y="34.0000000000" xlink:href="#block"/><use x="385.0000000000" y="34.0000000000" xlink:href="#block"/><use x="25.0000000000" y="43.0000000000" xlink:href="#block"/><use x="43.0000000000" y="43.0000000000" xlink:href="#block"/><use x="52.0000000000" y="43.0000000000" xlink:href="#block"/><use x="61.0000000000" y="43.0000000000" xlink:href="#block"/><use x="79.0000000000" y="43.0000000000" xlink:href="#block"/><use x="97.0000000000" y="43.0000000000" xlink:href="#block"/><use x="115.0000000000" y="43.0000000000" xlink:href="#block"/><use x="124.0000000000" y="43.0000000000" xlink:href="#block"/><use x="160.0000000000" y="43.0000000000" xlink:href="#block"/><use x="169.0000000000" y="43.0000000000" xlink:href="#block"/><use x="178.0000000000" y="43.0000000000" xlink:href="#block"/><use x="187.0000000000" y="43.0000000000" xlink:href="#block"/><use x="205.0000000000" y="43.0000000000" xlink:href="#block"/><use x="214.0000000000" y="43.0000000000" xlink:href="#block"/><use x="232.0000000000" y="43.0000000000" xlink:href="#block"/><use x="295.0000000000" y="43.0000000000" xlink:href="#block"/><use x="313.0000000000" y="43.0000000000" xlink:href="#block"/><use x="331.0000000000" y="43.0000000000" xlink:href="#block"/><use x="349.0000000000" y="43.0000000000" xlink:href="#block"/><use x="358.0000000000" y="43.0000000000" xlink:href="#block"/><use x="367.0000000000" y="43.0000000000" xlink:href="#block"/><use x="385.0000000000" y="43.0000000000" xlink:href="#block"/><use x="25.0000000000" y="52.0000000000" xlink:href="#block"/><use x="43.0000000000" y="52.0000000000" xlink:href="#block"/><use x="52.0000000000" y="52.0000000000" xlink:href="#block"/><use x="61.0000000000" y="52.0000000000" xlink:href="#block"/><use x="79.0000000000" y="52.0000000000" xlink:href="#block"/><use x="106.0000000000" y="52.0000000000" xlink:href="#block"/><use x="124.0000000000" y="52.0000000000" xlink:href="#block"/><use x="133.0000000000" y="52.0000000000" xlink:href="#block"/><use x="160.0000000000" y="52.0000000000" xlink:href="#block"/><use x="223.0000000000" y="52.0000000000" xlink:href="#block"/><use x="241.0000000000" y="52.0000000000" xlink:href="#block"/><use x="295.0000000000" y="52.0000000000" xlink:href="#block"/><use x="313.0000000000" y="52.0000000000" xlink:href="#block"/><use x="331.0000000000" y="52.0000000000" xlink:href="#block"/><use x="349.0000000000" y="52.0000000000" xlink:href="#block"/><use x="358.0000000000" y="52.0000000000" xlink:href="#block"/><use x="367.0000000000" y="52.0000000000" xlink:href="#block"/><use x="385.0000000000" y="52.0000000000" xlink:href="#block"/><use x="25.0000000000" y="61.0000000000" xlink:href="#block"/><use x="43.0000000000" y="61.0000000000" xlink:href="#block"/><use x="52.0000000000" y="61.0000000000" xlink:href="#block"/><use x="61.0000000000" y="61.0000000000" xlink:href="#block"/><use x="79.0000000000" y="61.0000000000" xlink:href="#block"/><use x="97.0000000000" y="61.0000000000" xlink:href="#block"/><use x="115.0000000000" y="61.0000000000" xlink:href="#block"/><use x="124.0000000000" y="61.0000000000" xlink:href="#block"/><use x="133.0000000000" y="61.0000000000" xlink:href="#block"/><use x="142.0000000000" y="61.0000000000" xlink:href="#block"/><use x="169.0000000000" y="61.0000000000" xlink:href="#block"/><use x="178.0000000000" y="61.0000000000" xlink:href="#block"/><use x="187.0000000000" y="61.0000000000" xlink:href="#block"/><use x="214.0000000000" y="61.0000000000" xlink:href="#block"/><use x="223.0000000000" y="61.0000000000" xlink:href="#block"/><use x="241.0000000000" y="61.0000000000" xlink:href="#block"/><use x="259.0000000000" y="61.0000000000" xlink:href="#block"/><use x="286.0000000000" y="61.0000000000" xlink:href="#block"/><use x="295.0000000000" y="61.0000000000" xlink:href="#block"/><use x="313.0000000000" y="61.0000000000" xlink:href="#block"/><use x="331.0000000000" y="61.0000000000" xlink:href="#block"/><use x="349.0000000000" y="61.0000000000" xlink:href="#block"/><use x="358.0000000000" y="61.0000000000" xlink:href="#block"/><use x="367.0000000000" y="61.0000000000" xlink:href="#block"/><use x="385.0000000000" y="61.0000000000" xlink:href="#block"/><use x="25.0000000000" y="70.0000000000" xlink:href="#block"/><use x="79.0000000000" y="70.0000000000" xlink:href="#block"/><use x="124.0000000000" y="70.0000000000" xlink:href="#block"/><use x="133.0000000000" y="70.0000000000" xlink:href="#block"/><use x="142.0000000000" y="70.0000000000" xlink:href="#block"/><use x="151.0000000000" y="70.0000000000" xlink:href="#block"/><use x="160.0000000000" y="70.0000000000" xlink:href="#block"/><use x="187.0000000000" y="70.0000000000" xlink:href="#block"/><use x="214.0000000000" y="70.0000000000" xlink:href="#block"/><use x="223.0000000000" y="70.0000000000" xlink:href="#block"/><use x="232.0000000000" y="70.0000000000" xlink:href="#block"/><use x="250.0000000000" y="70.0000000000" xlink:href="#block"/><use x="295.0000000000" y="70.0000000000" xlink:href="#block"/><use x="313.0000000000" y="70.0000000000" xlink:href="#block"/><use x="331.0000000000" y="70.0000000000" xlink:href="#block"/><use x="385.0000000000" y="70.0000000000" xlink:href="#block"/><use x="25.0000000000" y="79.0000000000" xlink:href="#block"/><use x="34.0000000000" y="79.0000000000" xlink:href="#block"/><use x="43.0000000000" y="79.0000000000" xlink:href="#block"/><use x="52.0000000000" y="79.0000000000" xlink:href="#block"/><use x="61.0000000000" y="79.0000000000" xlink:href="#block"/><use x="70.0000000000" y="79.0000000000" xlink:href="#block"/><use x="79.0000000000" y="79.0000000000" xlink:href="#block"/><use x="97.0000000000" y="79.0000000000" xlink:href="#block"/><use x="115.0000000000" y="79.0000000000" xlink:href="#block"/><use x="133.0000000000" y="79.0000000000" xlink:href="#block"/><use x="151.0000000000" y="79.0000000000" xlink:href="#block"/><use x="169.0000000000" y="79.0000000000" xlink:href="#block"/><use x="187.0000000000" y="79.0000000000" xlink:href="#block"/><use x="205.0000000000" y="79.0000000000" xlink:href="#block"/><use x="223.0000000000" y="79.0000000000" xlink:href="#block"/><use x="241.0000000000" y="79.0000000000" xlink:href="#block"/><use x="259.0000000000" y="79.0000000000" xlink:href="#block"/><use x="277.0000000000" y="79.0000000000" xlink:href="#block"/><use x="295.0000000000" y="79.0000000000" xlink:href="#block"/><use x="313.0000000000" y="79.0000000000" xlink:href="#block"/><use x="331.0000000000" y="79.0000000000" xlink:href="#block"/><use x="340.0000000000" y="79.0000000000" xlink:href="#block"/><use x="349.0000000000" y="79.0000000000" xlink:href="#block"/><use x="358.0000000000" y="79.0000000000" xlink:href="#block"/><use x="367.0000000000" y="79.0000000000" xlink:href="#block"/><use x="376.0000000000" y="79.0000000000" xlink:href="#block"/><use x="385.0000000000" y="79.0000000000" xlink:href="#block"/><use x="115.0000000000" y="88.0000000000" xlink:href="#block"/><use x="124.0000000000" y="88.0000000000" xlink:href="#block"/><use x="133.0000000000" y="88.0000000000" xlink:href="#block"/><use x="142.0000000000" y="88.0000000000" xlink:href="#block"/><use x="169.0000000000" y="88.0000000000" xlink:href="#block"/><use x="214.0000000000" y="88.0000000000" xlink:href="#block"/><use x="223.0000000000" y="88.0000000000" xlink:href="#block"/><use x="232.0000000000" y="88.0000000000" xlink:href="#block"/><use x="250.0000000000" y="88.0000000000" xlink:href="#block"/><use x="277.0000000000" y="88.0000000000" xlink:href="#block"/><use x="286.0000000000" y="88.0000000000" xlink:href="#block"/><use x="313.0000000000" y="88.0000000000" xlink:href="#block"/><use x="25.0000000000" y="97.0000000000" xlink:href="#block"/><use x="52.0000000000" y="97.0000000000" xlink:href="#block"/><use x="61.0000000000" y="97.0000000000" xlink:href="#block"/><use x="70.0000000000" y="97.0000000000" xlink:href="#block"/><use x="79.0000000000" y="97.0000000000" xlink:href="#block"/><use x="88.0000000000" y="97.0000000000" xlink:href="#block"/><use x="97.0000000000" y="97.0000000000" xlink:href="#block"/><use x="106.0000000000" y="97.0000000000" xlink:href="#block"/><use x="133.0000000000" y="97.0000000000" xlink:href="#block"/><use x="142.0000000000" y="97.0000000000" xlink:href="#block"/><use x="169.0000000000" y="97.0000000000" xlink:href="#block"/><use x="178.0000000000" y="97.0000000000" xlink:href="#block"/><use x="196.0000000000" y="97.0000000000" xlink:href="#block"/><use x="205.0000000000" y="97.0000000000" xlink:href="#block"/><use x="214.0000000000" y="97.0000000000" xlink:href="#block"/><use x="223.0000000000" y="97.0000000000" xlink:href="#block"/><use x="250.0000000000" y="97.0000000000" xlink:href="#block"/><use x="259.0000000000" y="97.0000000000" xlink:href="#block"/><use x="268.0000000000" y="97.0000000000" xlink:href="#block"/><use x="277.0000000000" y="97.0000000000" xlink:href="#block"/><use x="295.0000000000" y="97.0000000000" xlink:href="#block"/><use x="304.0000000000" y="97.0000000000" xlink:href="#block"/><use x="313.0000000000" y="97.0000000000" xlink:href="#block"/><use x="322.0000000000" y="97.0000000000" xlink:href="#block"/><use x="349.0000000000" y="97.0000000000" xlink:href="#block"/><use x="367.0000000000" y="97.0000000000" xlink:href="#block"/><use x="376.0000000000" y="97.0000000000" xlink:href="#block"/><use x="385.0000000000" y="97.0000000000" xlink:href="#block"/><use x="52.0000000000" y="106.0000000000" xlink:href="#block"/><use x="97.0000000000" y="106.0000000000" xlink:href="#block"/><use x="124.0000000000" y="106.0000000000" xlink:href="#block"/><use x="142.0000000000" y="106.0000000000" xlink:href="#block"/><use x="151.0000000000" y="106.0000000000" xlink:href="#block"/><use x="169.0000000000" y="106.0000000000" xlink:href="#block"/><use x="187.0000000000" y="106.0000000000" xlink:href="#block"/><use x="205.0000000000" y="106.0000000000" xlink:href="#block"/><use x="223.0000000000" y="106.0000000000" xlink:href="#block"/><use x="232.0000000000" y="106.0000000000" xlink:href="#block"/><use x="259.0000000000" y="106.0000000000" xlink:href="#block"/><use x="277.0000000000" y="106.0000000000" xlink:href="#block"/><use x="295.0000000000" y="106.0000000000" xlink:href="#block"/><use x="313.0000000000" y="106.0000000000" xlink:href="#block"/><use x="331.0000000000" y="106.0000000000" xlink:href="#block"/><use x="340.0000000000" y="106.0000000000" xlink:href="#block"/><use x="358.0000000000" y="106.0000000000" xlink:href="#block"/><use x="367.0000000000" y="106.0000000000" xlink:href="#block"/><use x="376.0000000000" y="106.0000000000" xlink:href="#block"/><use x="385.0000000000" y="106.0000000000" xlink:href="#block"/><use x="34.0000000000" y="115.0000000000" xlink:href="#block"/><use x="43.0000000000" y="115.0000000000" xlink:href="#block"/><use x="61.0000000000" y="115.0000000000" xlink:href="#block"/><use x="70.0000000000" y="115.0000000000" xlink:href="#block"/><use x="79.0000000000" y="115.0000000000" xlink:href="#block"/><use x="115.0000000000" y="115.0000000000" xlink:href="#block"/><use x="133.0000000000" y="115.0000000000" xlink:href="#block"/><use x="142.0000000000" y="115.0000000000" xlink:href="#block"/><use x="160.0000000000" y="115.0000000000" xlink:href="#block"/><use x="169.0000000000" y="115.0000000000" xlink:href="#block"/><use x="223.0000000000" y="115.0000000000" xlink:href="#block"/><use x="232.0000000000" y="115.0000000000" xlink:href="#block"/><use x="250.0000000000" y="115.0000000000" xlink:href="#block"/><use x="268.0000000000" y="115.0000000000" xlink:href="#block"/><use x="277.0000000000" y="115.0000000000" xlink:href="#block"/><use x="295.0000000000" y="115.0000000000" xlink:href="#block"/><use x="358.0000000000" y="115.0000000000" xlink:href="#block"/><use x="367.0000000000" y="115.0000000000" xlink:href="#block"/><use x="34.0000000000" y="124.0000000000" xlink:href="#block"/><use x="43.0000000000" y="124.0000000000" xlink:href="#block"/><use x="61.0000000000" y="124.0000000000" xlink:href="#block"/><use x="97.0000000000" y="124.0000000000" xlink:href="#block"/><use x="106.0000000000" y="124.0000000000" xlink:href="#block"/><use x="115.0000000000" y="124.0000000000" xlink:href="#block"/><use x="124.0000000000" y="124.0000000000" xlink:href="#block"/><use x="160.0000000000" y="124.0000000000" xlink:href="#block"/><use x="187.0000000000" y="124.0000000000" xlink:href="#block"/><use x="196.0000000000" y="124.0000000000" xlink:href="#block"/><use x="214.0000000000" y="124.0000000000" xlink:href="#block"/><use x="241.0000000000" y="124.0000000000" xlink:href="#block"/><use x="259.0000000000" y="124.0000000000" xlink:href="#block"/><use x="268.0000000000" y="124.0000000000" xlink:href="#block"/><use x="277.0000000000" y="124.0000000000" xlink:href="#block"/><use x="286.0000000000" y="124.0000000000" xlink:href="#block"/><use x="304.0000000000" y="124.0000000000" xlink:href="#block"/><use x="349.0000000000" y="124.0000000000" xlink:href="#block"/><use x="358.0000000000" y="124.0000000000" xlink:href="#block"/><use x="376.0000000000" y="124.0000000000" xlink:href="#block"/><use x="25.0000000000" y="133.0000000000" xlink:href="#block"/><use x="43.0000000000" y="133.0000000000" xlink:href="#block"/><use x="52.0000000000" y="133.0000000000" xlink:href="#block"/><use x="70.0000000000" y="133.0000000000" xlink:href="#block"/><use x="79.0000000000" y="133.0000000000" xlink:href="#block"/><use x="88.0000000000" y="133.0000000000" xlink:href="#block"/><use x="106.0000000000" y="133.0000000000" xlink:href="#block"/><use x="124.0000000000" y="133.0000000000" xlink:href="#block"/><use x="133.0000000000" y="133.0000000000" xlink:href="#block"/><use x="151.0000000000" y="133.0000000000" xlink:href="#block"/><use x="160.0000000000" y="133.0000000000" xlink:href="#block"/><use x="169.0000000000" y="133.0000000000" xlink:href="#block"/><use x="196.0000000000" y="133.0000000000" xlink:href="#block"/><use x="223.0000000000" y="133.0000000000" xlink:href="#block"/><use x="232.0000000000" y="133.0000000000" xlink:href="#block"/><use x="241.0000000000" y="133.0000000000" xlink:href="#block"/><use x="250.0000000000" y="133.0000000000" xlink:href="#block"/><use x="268.0000000000" y="133.0000000000" xlink:href="#block"/><use x="286.0000000000" y="133.0000000000" xlink:href="#block"/><use x="295.0000000000" y="133.0000000000" xlink:href="#block"/><use x="304.0000000000" y="133.0000000000" xlink:href="#block"/><use x="313.0000000000" y="133.0000000000" xlink:href="#block"/><use x="331.0000000000" y="133.0000000000" xlink:href="#block"/><use x="349.0000000000" y="133.0000000000" xlink:href="#block"/><use x="385.0000000000" y="133.0000000000" xlink:href="#block"/><use x="43.0000000000" y="142.0000000000" xlink:href="#block"/><use x="70.0000000000" y="142.0000000000" xlink:href="#block"/><use x="97.0000000000" y="142.0000000000" xlink:href="#block"/><use x="106.0000000000" y="142.0000000000" xlink:href="#block"/><use x="124.0000000000" y="142.0000000000" xlink:href="#block"/><use x="133.0000000000" y="142.0000000000" xlink:href="#block"/><use x="151.0000000000" y="142.0000000000" xlink:href="#block"/><use x="169.0000000000" y="142.0000000000" xlink:href="#block"/><use x="187.0000000000" y="142.0000000000" xlink:href="#block"/><use x="196.0000000000" y="142.0000000000" xlink:href="#block"/><use x="205.0000000000" y="142.0000000000" xlink:href="#block"/><use x="250.0000000000" y="142.0000000000" xlink:href="#block"/><use x="259.0000000000" y="142.0000000000" xlink:href="#block"/><use x="295.0000000000" y="142.0000000000" xlink:href="#block"/><use x="304.0000000000" y="142.0000000000" xlink:href="#block"/><use x="322.0000000000" y="142.0000000000" xlink:href="#block"/><use x="349.0000000000" y="142.0000000000" xlink:href="#block"/><use x="358.0000000000" y="142.0000000000" xlink:href="#block"/><use x="367.0000000000" y="142.0000000000" xlink:href="#block"/><use x="43.0000000000" y="151.0000000000" xlink:href="#block"/><use x="52.0000000000" y="151.0000000000" xlink:href="#block"/><use x="61.0000000000" y="151.0000000000" xlink:href="#block"/><use x="70.0000000000" y="151.0000000000" xlink:href="#block"/><use x="79.0000000000" y="151.0000000000" xlink:href="#block"/><use x="106.0000000000" y="151.0000000000" xlink:href="#block"/><use x="142.0000000000" y="151.0000000000" xlink:href="#block"/><use x="151.0000000000" y="151.0000000000" xlink:href="#block"/><use x="178.0000000000" y="151.0000000000" xlink:href="#block"/><use x="196.0000000000" y="151.0000000000" xlink:href="#block"/><use x="205.0000000000" y="151.0000000000" xlink:href="#block"/><use x="232.0000000000" y="151.0000000000" xlink:href="#block"/><use x="241.0000000000" y="151.0000000000" xlink:href="#block"/><use x="268.0000000000" y="151.0000000000" xlink:href="#block"/><use x="286.0000000000" y="151.0000000000" xlink:href="#block"/><use x="313.0000000000" y="151.0000000000" xlink:href="#block"/><use x="331.0000000000" y="151.0000000000" xlink:href="#block"/><use x="340.0000000000" y="151.0000000000" xlink:href="#block"/><use x="367.0000000000" y="151.0000000000" xlink:href="#block"/><use x="376.0000000000" y="151.0000000000" xlink:href="#block"/><use x="385.0000000000" y="151.0000000000" xlink:href="#block"/><use x="52.0000000000" y="160.0000000000" xlink:href="#block"/><use x="61.0000000000" y="160.0000000000" xlink:href="#block"/><use x="88.0000000000" y="160.0000000000" xlink:href="#block"/><use x="106.0000000000" y="160.0000000000" xlink:href="#block"/><use x="115.0000000000" y="160.0000000000" xlink:href="#block"/><use x="160.0000000000" y="160.0000000000" xlink:href="#block"/><use x="169.0000000000" y="160.0000000000" xlink:href="#block"/><use x="205.0000000000" y="160.0000000000" xlink:href="#block"/><use x="223.0000000000" y="160.0000000000" xlink:href="#block"/><use x="232.0000000000" y="160.0000000000" xlink:href="#block"/><use x="259.0000000000" y="160.0000000000" xlink:href="#block"/><use x="277.0000000000" y="160.0000000000" xlink:href="#block"/><use x="304.0000000000" y="160.0000000000" xlink:href="#block"/><use x="322.0000000000" y="160.0000000000" xlink:href="#block"/><use x="349.0000000000" y="160.0000000000" xlink:href="#block"/><use x="367.0000000000" y="160.0000000000" xlink:href="#block"/><use x="25.0000000000" y="169.0000000000" xlink:href="#block"/><use x="34.0000000000" y="169.0000000000" xlink:href="#block"/><use x="52.0000000000" y="169.0000000000" xlink:href="#block"/><use x="79.0000000000" y="169.0000000000" xlink:href="#block"/><use x="88.0000000000" y="169.0000000000" xlink:href="#block"/><use x="106.0000000000" y="169.0000000000" xlink:href="#block"/><use x="142.0000000000" y="169.0000000000" xlink:href="#block"/><use x="160.0000000000" y="169.0000000000" xlink:href="#block"/><use x="178.0000000000" y="169.0000000000" xlink:href="#block"/><use x="205.0000000000" y="169.0000000000" xlink:href="#block"/><use x="214.0000000000" y="169.0000000000" xlink:href="#block"/><use x="223.0000000000" y="169.0000000000" xlink:href="#block"/><use x="241.0000000000" y="169.0000000000" xlink:href="#block"/><use x="259.0000000000" y="169.0000000000" xlink:href="#block"/><use x="268.0000000000" y="169.0000000000" xlink:href="#block"/><use x="313.0000000000" y="169.0000000000" xlink:href="#block"/><use x="331.0000000000" y="169.0000000000" xlink:href="#block"/><use x="340.0000000000" y="169.0000000000" xlink:href="#block"/><use x="349.0000000000" y="169.0000000000" xlink:href="#block"/><use x="367.0000000000" y="169.0000000000" xlink:href="#block"/><use x="376.0000000000" y="169.0000000000" xlink:href="#block"/><use x="34.0000000000" y="178.0000000000" xlink:href="#block"/><use x="52.0000000000" y="178.0000000000" xlink:href="#block"/><use x="106.0000000000" y="178.0000000000" xlink:href="#block"/><use x="142.0000000000" y="178.0000000000" xlink:href="#block"/><use x="151.0000000000" y="178.0000000000" xlink:href="#block"/><use x="160.0000000000" y="178.0000000000" xlink:href="#block"/><use x="178.0000000000" y="178.0000000000" xlink:href="#block"/><use x="187.0000000000" y="178.0000000000" xlink:href="#block"/><use x="214.0000000000" y="178.0000000000" xlink:href="#block"/><use x="232.0000000000" y="178.0000000000" xlink:href="#block"/><use x="241.0000000000" y="178.0000000000" xlink:href="#block"/><use x="268.0000000000" y="178.0000000000" xlink:href="#block"/><use x="304.0000000000" y="178.0000000000" xlink:href="#block"/><use x="331.0000000000" y="178.0000000000" xlink:href="#block"/><use x="358.0000000000" y="178.0000000000" xlink:href="#block"/><use x="61.0000000000" y="187.0000000000" xlink:href="#block"/><use x="79.0000000000" y="187.0000000000" xlink:href="#block"/><use x="88.0000000000" y="187.0000000000" xlink:href="#block"/><use x="97.0000000000" y="187.0000000000" xlink:href="#block"/><use x="115.0000000000" y="187.0000000000" xlink:href="#block"/><use x="133.0000000000" y="187.0000000000" xlink:href="#block"/><use x="169.0000000000" y="187.0000000000" xlink:href="#block"/><use x="178.0000000000" y="187.0000000000" xlink:href="#block"/><use x="187.0000000000" y="187.0000000000" xlink:href="#block"/><use x="196.0000000000" y="187.0000000000" xlink:href="#block"/><use x="205.0000000000" y="187.0000000000" xlink:href="#block"/><use x="232.0000000000" y="187.0000000000" xlink:href="#block"/><use x="241.0000000000" y="187.0000000000" xlink:href="#block"/><use x="250.0000000000" y="187.0000000000" xlink:href="#block"/><use x="259.0000000000" y="187.0000000000" xlink:href="#block"/><use x="277.0000000000" y="187.0000000000" xlink:href="#block"/><use x="304.0000000000" y="187.0000000000" xlink:href="#block"/><use x="331.0000000000" y="187.0000000000" xlink:href="#block"/><use x="340.0000000000" y="187.0000000000" xlink:href="#block"/><use x="349.0000000000" y="187.0000000000" xlink:href="#block"/><use x="358.0000000000" y="187.0000000000" xlink:href="#block"/><use x="367.0000000000" y="187.0000000000" xlink:href="#block"/><use x="376.0000000000" y="187.0000000000" xlink:href="#block"/><use x="385.0000000000" y="187.0000000000" xlink:href="#block"/><use x="25.0000000000" y="196.0000000000" xlink:href="#block"/><use x="43.0000000000" y="196.0000000000" xlink:href="#block"/><use x="52.0000000000" y="196.0000000000" xlink:href="#block"/><use x="106.0000000000" y="196.0000000000" xlink:href="#block"/><use x="124.0000000000" y="196.0000000000" xlink:href="#block"/><use x="133.0000000000" y="196.0000000000" xlink:href="#block"/><use x="142.0000000000" y="196.0000000000" xlink:href="#block"/><use x="151.0000000000" y="196.0000000000" xlink:href="#block"/><use x="160.0000000000" y="196.0000000000" xlink:href="#block"/><use x="169.0000000000" y="196.0000000000" xlink:href="#block"/><use x="205.0000000000" y="196.0000000000" xlink:href="#block"/><use x="214.0000000000" y="196.0000000000" xlink:href="#block"/><use x="232.0000000000" y="196.0000000000" xlink:href="#block"/><use x="241.0000000000" y="196.0000000000" xlink:href="#block"/><use x="250.0000000000" y="196.0000000000" xlink:href="#block"/><use x="268.0000000000" y="196.0000000000" xlink:href="#block"/><use x="277.0000000000" y="196.0000000000" xlink:href="#block"/><use x="286.0000000000" y="196.0000000000" xlink:href="#block"/><use x="295.0000000000" y="196.0000000000" xlink:href="#block"/><use x="322.0000000000" y="196.0000000000" xlink:href="#block"/><use x="331.0000000000" y="196.0000000000" xlink:href="#block"/><use x="340.0000000000" y="196.0000000000" xlink:href="#block"/><use x="349.0000000000" y="196.0000000000" xlink:href="#block"/><use x="376.0000000000" y="196.0000000000" xlink:href="#block"/><use x="385.0000000000" y="196.0000000000" xlink:href="#block"/><use x="34.0000000000" y="205.0000000000" xlink:href="#block"/><use x="43.0000000000" y="205.0000000000" xlink:href="#block"/><use x="52.0000000000" y="205.0000000000" xlink:href="#block"/><use x="70.0000000000" y="205.0000000000" xlink:href="#block"/><use x="79.0000000000" y="205.0000000000" xlink:href="#block"/><use x="97.0000000000" y="205.0000000000" xlink:href="#block"/><use x="106.0000000000" y="205.0000000000" xlink:href="#block"/><use x="115.0000000000" y="205.0000000000" xlink:href="#block"/><use x="124.0000000000" y="205.0000000000" xlink:href="#block"/><use x="142.0000000000" y="205.0000000000" xlink:href="#block"/><use x="151.0000000000" y="205.0000000000" xlink:href="#block"/><use x="160.0000000000" y="205.0000000000" xlink:href="#block"/><use x="187.0000000000" y="205.0000000000" xlink:href="#block"/><use x="196.0000000000" y="205.0000000000" xlink:href="#block"/><use x="214.0000000000" y="205.0000000000" xlink:href="#block"/><use x="250.0000000000" y="205.0000000000" xlink:href="#block"/><use x="268.0000000000" y="205.0000000000" xlink:href="#block"/><use x="277.0000000000" y="205.0000000000" xlink:href="#block"/><use x="304.0000000000" y="205.0000000000" xlink:href="#block"/><use x="340.0000000000" y="205.0000000000" xlink:href="#block"/><use x="367.0000000000" y="205.0000000000" xlink:href="#block"/><use x="376.0000000000" y="205.0000000000" xlink:href="#block"/><use x="385.0000000000" y="205.0000000000" xlink:href="#block"/><use x="25.0000000000" y="214.0000000000" xlink:href="#block"/><use x="34.0000000000" y="214.0000000000" xlink:href="#block"/><use x="43.0000000000" y="214.0000000000" xlink:href="#block"/><use x="52.0000000000" y="214.0000000000" xlink:href="#block"/><use x="61.0000000000" y="214.0000000000" xlink:href="#block"/><use x="70.0000000000" y="214.0000000000" xlink:href="#block"/><use x="88.0000000000" y="214.0000000000" xlink:href="#block"/><use x="115.0000000000" y="214.0000000000" xlink:href="#block"/><use x="169.0000000000" y="214.0000000000" xlink:href="#block"/><use x="196.0000000000" y="214.0000000000" xlink:href="#block"/><use x="205.0000000000" y="214.0000000000" xlink:href="#block"/><use x="223.0000000000" y="214.0000000000" xlink:href="#block"/><use x="241.0000000000" y="214.0000000000" xlink:href="#block"/><use x="295.0000000000" y="214.0000000000" xlink:href="#block"/><use x="313.0000000000" y="214.0000000000" xlink:href="#block"/><use x="331.0000000000" y="214.0000000000" xlink:href="#block"/><use x="340.0000000000" y="214.0000000000" xlink:href="#block"/><use x="349.0000000000" y="214.0000000000" xlink:href="#block"/><use x="358.0000000000" y="214.0000000000" xlink:href="#block"/><use x="367.0000000000" y="214.0000000000" xlink:href="#block"/><use x="385.0000000000" y="214.0000000000" xlink:href="#block"/><use x="34.0000000000" y="223.0000000000" xlink:href="#block"/><use x="52.0000000000" y="223.0000000000" xlink:href="#block"/><use x="61.0000000000" y="223.0000000000" xlink:href="#block"/><use x="70.0000000000" y="223.0000000000" xlink:href="#block"/><use x="79.0000000000" y="223.0000000000" xlink:href="#block"/><use x="88.0000000000" y="223.0000000000" xlink:href="#block"/><use x="115.0000000000" y="223.0000000000" xlink:href="#block"/><use x="133.0000000000" y="223.0000000000" xlink:href="#block"/><use x="160.0000000000" y="223.0000000000" xlink:href="#block"/><use x="169.0000000000" y="223.0000000000" xlink:href="#block"/><use x="187.0000000000" y="223.0000000000" xlink:href="#block"/><use x="196.0000000000" y="223.0000000000" xlink:href="#block"/><use x="232.0000000000" y="223.0000000000" xlink:href="#block"/><use x="241.0000000000" y="223.0000000000" xlink:href="#block"/><use x="250.0000000000" y="223.0000000000" xlink:href="#block"/><use x="259.0000000000" y="223.0000000000" xlink:href="#block"/><use x="277.0000000000" y="223.0000000000" xlink:href="#block"/><use x="295.0000000000" y="223.0000000000" xlink:href="#block"/><use x="358.0000000000" y="223.0000000000" xlink:href="#block"/><use x="43.0000000000" y="232.0000000000" xlink:href="#block"/><use x="61.0000000000" y="232.0000000000" xlink:href="#block"/><use x="70.0000000000" y="232.0000000000" xlink:href="#block"/><use x="88.0000000000" y="232.0000000000" xlink:href="#block"/><use x="124.0000000000" y="232.0000000000" xlink:href="#block"/><use x="133.0000000000" y="232.0000000000" xlink:href="#block"/><use x="151.0000000000" y="232.0000000000" xlink:href="#block"/><use x="178.0000000000" y="232.0000000000" xlink:href="#block"/><use x="196.0000000000" y="232.0000000000" xlink:href="#block"/><use x="205.0000000000" y="232.0000000000" xlink:href="#block"/><use x="259.0000000000" y="232.0000000000" xlink:href="#block"/><use x="268.0000000000" y="232.0000000000" xlink:href="#block"/><use x="286.0000000000" y="232.0000000000" xlink:href="#block"/><use x="304.0000000000" y="232.0000000000" xlink:href="#block"/><use x="331.0000000000" y="232.0000000000" xlink:href="#block"/><use x="349.0000000000" y="232.0000000000" xlink:href="#block"/><use x="358.0000000000" y="232.0000000000" xlink:href="#block"/><use x="34.0000000000" y="241.0000000000" xlink:href="#block"/><use x="43.0000000000" y="241.0000000000" xlink:href="#block"/><use x="79.0000000000" y="241.0000000000" xlink:href="#block"/><use x="88.0000000000" y="241.0000000000" xlink:href="#block"/><use x="97.0000000000" y="241.0000000000" xlink:href="#block"/><use x="124.0000000000" y="241.0000000000" xlink:href="#block"/><use x="133.0000000000" y="241.0000000000" xlink:href="#block"/><use x="151.0000000000" y="241.0000000000" xlink:href="#block"/><use x="178.0000000000" y="241.0000000000" xlink:href="#block"/><use x="196.0000000000" y="241.0000000000" xlink:href="#block"/><use x="205.0000000000" y="241.0000000000" xlink:href="#block"/><use x="214.0000000000" y="241.0000000000" xlink:href="#block"/><use x="223.0000000000" y="241.0000000000" xlink:href="#block"/><use x="232.0000000000" y="241.0000000000" xlink:href="#block"/><use x="241.0000000000" y="241.0000000000" xlink:href="#block"/><use x="250.0000000000" y="241.0000000000" xlink:href="#block"/><use x="268.0000000000" y="241.0000000000" xlink:href="#block"/><use x="304.0000000000" y="241.0000000000" xlink:href="#block"/><use x="313.0000000000" y="241.0000000000" xlink:href="#block"/><use x="331.0000000000" y="241.0000000000" xlink:href="#block"/><use x="358.0000000000" y="241.0000000000" xlink:href="#block"/><use x="367.0000000000" y="241.0000000000" xlink:href="#block"/><use x="376.0000000000" y="241.0000000000" xlink:href="#block"/><use x="43.0000000000" y="250.0000000000" xlink:href="#block"/><use x="61.0000000000" y="250.0000000000" xlink:href="#block"/><use x="70.0000000000" y="250.0000000000" xlink:href="#block"/><use x="88.0000000000" y="250.0000000000" xlink:href="#block"/><use x="124.0000000000" y="250.0000000000" xlink:href="#block"/><use x="133.0000000000" y="250.0000000000" xlink:href="#block"/><use x="142.0000000000" y="250.0000000000" xlink:href="#block"/><use x="160.0000000000" y="250.0000000000" xlink:href="#block"/><use x="196.0000000000" y="250.0000000000" xlink:href="#block"/><use x="205.0000000000" y="250.0000000000" xlink:href="#block"/><use x="223.0000000000" y="250.0000000000" xlink:href="#block"/><use x="241.0000000000" y="250.0000000000" xlink:href="#block"/><use x="250.0000000000" y="250.0000000000" xlink:href="#block"/><use x="304.0000000000" y="250.0000000000" xlink:href="#block"/><use x="340.0000000000" y="250.0000000000" xlink:href="#block"/><use x="367.0000000000" y="250.0000000000" xlink:href="#block"/><use x="25.0000000000" y="259.0000000000" xlink:href="#block"/><use x="43.0000000000" y="259.0000000000" xlink:href="#block"/><use x="61.0000000000" y="259.0000000000" xlink:href="#block"/><use x="79.0000000000" y="259.0000000000" xlink:href="#block"/><use x="124.0000000000" y="259.0000000000" xlink:href="#block"/><use x="133.0000000000" y="259.0000000000" xlink:href="#block"/><use x="142.0000000000" y="259.0000000000" xlink:href="#block"/><use x="160.0000000000" y="259.0000000000" xlink:href="#block"/><use x="169.0000000000" y="259.0000000000" xlink:href="#block"/><use x="178.0000000000" y="259.0000000000" xlink:href="#block"/><use x="205.0000000000" y="259.0000000000" xlink:href="#block"/><use x="259.0000000000" y="259.0000000000" xlink:href="#block"/><use x="268.0000000000" y="259.0000000000" xlink:href="#block"/><use x="286.0000000000" y="259.0000000000" xlink:href="#block"/><use x="295.0000000000" y="259.0000000000" xlink:href="#block"/><use x="304.0000000000" y="259.0000000000" xlink:href="#block"/><use x="313.0000000000" y="259.0000000000" xlink:href="#block"/><use x="331.0000000000" y="259.0000000000" xlink:href="#block"/><use x="349.0000000000" y="259.0000000000" xlink:href="#block"/><use x="367.0000000000" y="259.0000000000" xlink:href="#block"/><use x="385.0000000000" y="259.0000000000" xlink:href="#block"/><use x="25.0000000000" y="268.0000000000" xlink:href="#block"/><use x="34.0000000000" y="268.0000000000" xlink:href="#block"/><use x="43.0000000000" y="268.0000000000" xlink:href="#block"/><use x="70.0000000000" y="268.0000000000" xlink:href="#block"/><use x="88.0000000000" y="268.0000000000" xlink:href="#block"/><use x="97.0000000000" y="268.0000000000" xlink:href="#block"/><use x="115.0000000000" y="268.0000000000" xlink:href="#block"/><use x="133.0000000000" y="268.0000000000" xlink:href="#block"/><use x="151.0000000000" y="268.0000000000" xlink:href="#block"/><use x="169.0000000000" y="268.0000000000" xlink:href="#block"/><use x="178.0000000000" y="268.0000000000" xlink:href="#block"/><use x="187.0000000000" y="268.0000000000" xlink:href="#block"/><use x="196.0000000000" y="268.0000000000" xlink:href="#block"/><use x="205.0000000000" y="268.0000000000" xlink:href="#block"/><use x="214.0000000000" y="268.0000000000" xlink:href="#block"/><use x="232.0000000000" y="268.0000000000" xlink:href="#block"/><use x="241.0000000000" y="268.0000000000" xlink:href="#block"/><use x="250.0000000000" y="268.0000000000" xlink:href="#block"/><use x="259.0000000000" y="268.0000000000" xlink:href="#block"/><use x="268.0000000000" y="268.0000000000" xlink:href="#block"/><use x="277.0000000000" y="268.0000000000" xlink:href="#block"/><use x="304.0000000000" y="268.0000000000" xlink:href="#block"/><use x="313.0000000000" y="268.0000000000" xlink:href="#block"/><use x="322.0000000000" y="268.0000000000" xlink:href="#block"/><use x="340.0000000000" y="268.0000000000" xlink:href="#block"/><use x="349.0000000000" y="268.0000000000" xlink:href="#block"/><use x="358.0000000000" y="268.0000000000" xlink:href="#block"/><use x="376.0000000000" y="268.0000000000" xlink:href="#block"/><use x="34.0000000000" y="277.0000000000" xlink:href="#block"/><use x="52.0000000000" y="277.0000000000" xlink:href="#block"/><use x="79.0000000000" y="277.0000000000" xlink:href="#block"/><use x="97.0000000000" y="277.0000000000" xlink:href="#block"/><use x="106.0000000000" y="277.0000000000" xlink:href="#block"/><use x="115.0000000000" y="277.0000000000" xlink:href="#block"/><use x="133.0000000000" y="277.0000000000" xlink:href="#block"/><use x="142.0000000000" y="277.0000000000" xlink:href="#block"/><use x="169.0000000000" y="277.0000000000" xlink:href="#block"/><use x="178.0000000000" y="277.0000000000" xlink:href="#block"/><use x="187.0000000000" y="277.0000000000" xlink:href="#block"/><use x="205.0000000000" y="277.0000000000" xlink:href="#block"/><use x="214.0000000000" y="277.0000000000" xlink:href="#block"/><use x="232.0000000000" y="277.0000000000" xlink:href="#block"/><use x="250.0000000000" y="277.0000000000" xlink:href="#block"/><use x="268.0000000000" y="277.0000000000" xlink:href="#block"/><use x="286.0000000000" y="277.0000000000" xlink:href="#block"/><use x="295.0000000000" y="277.0000000000" xlink:href="#block"/><use x="313.0000000000" y="277.0000000000" xlink:href="#block"/><use x="331.0000000000" y="277.0000000000" xlink:href="#block"/><use x="340.0000000000" y="277.0000000000" xlink:href="#block"/><use x="349.0000000000" y="277.0000000000" xlink:href="#block"/><use x="367.0000000000" y="277.0000000000" xlink:href="#block"/><use x="25.0000000000" y="286.0000000000" xlink:href="#block"/><use x="34.0000000000" y="286.0000000000" xlink:href="#block"/><use x="52.0000000000" y="286.0000000000" xlink:href="#block"/><use x="88.0000000000" y="286.0000000000" xlink:href="#block"/><use x="97.0000000000" y="286.0000000000" xlink:href="#block"/><use x="106.0000000000" y="286.0000000000" xlink:href="#block"/><use x="133.0000000000" y="286.0000000000" xlink:href="#block"/><use x="151.0000000000" y="286.0000000000" xlink:href="#block"/><use x="160.0000000000" y="286.0000000000" xlink:href="#block"/><use x="178.0000000000" y="286.0000000000" xlink:href="#block"/><use x="205.0000000000" y="286.0000000000" xlink:href="#block"/><use x="232.0000000000" y="286.0000000000" xlink:href="#block"/><use x="241.0000000000" y="286.0000000000" xlink:href="#block"/><use x="259.0000000000" y="286.0000000000" xlink:href="#block"/><use x="286.0000000000" y="286.0000000000" xlink:href="#block"/><use x="295.0000000000" y="286.0000000000" xlink:href="#block"/><use x="313.0000000000" y="286.0000000000" xlink:href="#block"/><use x="331.0000000000" y="286.0000000000" xlink:href="#block"/><use x="340.0000000000" y="286.0000000000" xlink:href="#block"/><use x="349.0000000000" y="286.0000000000" xlink:href="#block"/><use x="376.0000000000" y="286.0000000000" xlink:href="#block"/><use x="385.0000000000" y="286.0000000000" xlink:href="#block"/><use x="25.0000000000" y="295.0000000000" xlink:href="#block"/><use x="34.0000000000" y="295.0000000000" xlink:href="#block"/><use x="43.0000000000" y="295.0000000000" xlink:href="#block"/><use x="52.0000000000" y="295.0000000000" xlink:href="#block"/><use x="61.0000000000" y="295.0000000000" xlink:href="#block"/><use x="79.0000000000" y="295.0000000000" xlink:href="#block"/><use x="88.0000000000" y="295.0000000000" xlink:href="#block"/><use x="115.0000000000" y="295.0000000000" xlink:href="#block"/><use x="133.0000000000" y="295.0000000000" xlink:href="#block"/><use x="151.0000000000" y="295.0000000000" xlink:href="#block"/><use x="205.0000000000" y="295.0000000000" xlink:href="#block"/><use x="232.0000000000" y="295.0000000000" xlink:href="#block"/><use x="277.0000000000" y="295.0000000000" xlink:href="#block"/><use x="322.0000000000" y="295.0000000000" xlink:href="#block"/><use x="331.0000000000" y="295.0000000000" xlink:href="#block"/><use x="385.0000000000" y="295.0000000000" xlink:href="#block"/><use x="25.0000000000" y="304.0000000000" xlink:href="#block"/><use x="34.0000000000" y="304.0000000000" xlink:href="#block"/><use x="43.0000000000" y="304.0000000000" xlink:href="#block"/><use x="52.0000000000" y="304.0000000000" xlink:href="#block"/><use x="97.0000000000" y="304.0000000000" xlink:href="#block"/><use x="115.0000000000" y="304.0000000000" xlink:href="#block"/><use x="124.0000000000" y="304.0000000000" xlink:href="#block"/><use x="133.0000000000" y="304.0000000000" xlink:href="#block"/><use x="160.0000000000" y="304.0000000000" xlink:href="#block"/><use x="169.0000000000" y="304.0000000000" xlink:href="#block"/><use x="187.0000000000" y="304.0000000000" xlink:href="#block"/><use x="214.0000000000" y="304.0000000000" xlink:href="#block"/><use x="241.0000000000" y="304.0000000000" xlink:href="#block"/><use x="259.0000000000" y="304.0000000000" xlink:href="#block"/><use x="268.0000000000" y="304.0000000000" xlink:href="#block"/><use x="277.0000000000" y="304.0000000000" xlink:href="#block"/><use x="286.0000000000" y="304.0000000000" xlink:href="#block"/><use x="295.0000000000" y="304.0000000000" xlink:href="#block"/><use x="322.0000000000" y="304.0000000000" xlink:href="#block"/><use x="331.0000000000" y="304.0000000000" xlink:href="#block"/><use x="349.0000000000" y="304.0000000000" xlink:href="#block"/><use x="358.0000000000" y="304.0000000000" xlink:href="#block"/><use x="367.0000000000" y="304.0000000000" xlink:href="#block"/><use x="385.0000000000" y="304.0000000000" xlink:href="#block"/><use x="25.0000000000" y="313.0000000000" xlink:href="#block"/><use x="34.0000000000" y="313.0000000000" xlink:href="#block"/><use x="61.0000000000" y="313.0000000000" xlink:href="#block"/><use x="70.0000000000" y="313.0000000000" xlink:href="#block"/><use x="79.0000000000" y="313.0000000000" xlink:href="#block"/><use x="88.0000000000" y="313.0000000000" xlink:href="#block"/><use x="97.0000000000" y="313.0000000000" xlink:href="#block"/><use x="115.0000000000" y="313.0000000000" xlink:href="#block"/><use x="124.0000000000" y="313.0000000000" xlink:href="#block"/><use x="133.0000000000" y="313.0000000000" xlink:href="#block"/><use x="142.0000000000" y="313.0000000000" xlink:href="#block"/><use x="187.0000000000" y="313.0000000000" xlink:href="#block"/><use x="205.0000000000" y="313.0000000000" xlink:href="#block"/><use x="214.0000000000" y="313.0000000000" xlink:href="#block"/><use x="259.0000000000" y="313.0000000000" xlink:href="#block"/><use x="277.0000000000" y="313.0000000000" xlink:href="#block"/><use x="295.0000000000" y="313.0000000000" xlink:href="#block"/><use x="304.0000000000" y="313.0000000000" xlink:href="#block"/><use x="313.0000000000" y="313.0000000000" xlink:href="#block"/><use x="322.0000000000" y="313.0000000000" xlink:href="#block"/><use x="331.0000000000" y="313.0000000000" xlink:href="#block"/><use x="340.0000000000" y="313.0000000000" xlink:href="#block"/><use x="349.0000000000" y="313.0000000000" xlink:href="#block"/><use x="358.0000000000" y="313.0000000000" xlink:href="#block"/><use x="385.0000000000" y="313.0000000000" xlink:href="#block"/><use x="97.0000000000" y="322.0000000000" xlink:href="#block"/><use x="106.0000000000" y="322.0000000000" xlink:href="#block"/><use x="151.0000000000" y="322.0000000000" xlink:href="#block"/><use x="160.0000000000" y="322.0000000000" xlink:href="#block"/><use x="178.0000000000" y="322.0000000000" xlink:href="#block"/><use x="223.0000000000" y="322.0000000000" xlink:href="#block"/><use x="241.0000000000" y="322.0000000000" xlink:href="#block"/><use x="250.0000000000" y="322.0000000000" xlink:href="#block"/><use x="259.0000000000" y="322.0000000000" xlink:href="#block"/><use x="268.0000000000" y="322.0000000000" xlink:href="#block"/><use x="277.0000000000" y="322.0000000000" xlink:href="#block"/><use x="304.0000000000" y="322.0000000000" xlink:href="#block"/><use x="313.0000000000" y="322.0000000000" xlink:href="#block"/><use x="349.0000000000" y="322.0000000000" xlink:href="#block"/><use x="358.0000000000" y="322.0000000000" xlink:href="#block"/><use x="367.0000000000" y="322.0000000000" xlink:href="#block"/><use x="376.0000000000" y="322.0000000000" xlink:href="#block"/><use x="385.0000000000" y="322.0000000000" xlink:href="#block"/><use x="25.0000000000" y="331.0000000000" xlink:href="#block"/><use x="34.0000000000" y="331.0000000000" xlink:href="#block"/><use x="43.0000000000" y="331.0000000000" xlink:href="#block"/><use x="52.0000000000" y="331.0000000000" xlink:href="#block"/><use x="61.0000000000" y="331.0000000000" xlink:href="#block"/><use x="70.0000000000" y="331.0000000000" xlink:href="#block"/><use x="79.0000000000" y="331.0000000000" xlink:href="#block"/><use x="97.0000000000" y="331.0000000000" xlink:href="#block"/><use x="106.0000000000" y="331.0000000000" xlink:href="#block"/><use x="115.0000000000" y="331.0000000000" xlink:href="#block"/><use x="124.0000000000" y="331.0000000000" xlink:href="#block"/><use x="133.0000000000" y="331.0000000000" xlink:href="#block"/><use x="151.0000000000" y="331.0000000000" xlink:href="#block"/><use x="160.0000000000" y="331.0000000000" xlink:href="#block"/><use x="169.0000000000" y="331.0000000000" xlink:href="#block"/><use x="205.0000000000" y="331.0000000000" xlink:href="#block"/><use x="214.0000000000" y="331.0000000000" xlink:href="#block"/><use x="232.0000000000" y="331.0000000000" xlink:href="#block"/><use x="241.0000000000" y="331.0000000000" xlink:href="#block"/><use x="250.0000000000" y="331.0000000000" xlink:href="#block"/><use x="277.0000000000" y="331.0000000000" xlink:href="#block"/><use x="286.0000000000" y="331.0000000000" xlink:href="#block"/><use x="295.0000000000" y="331.0000000000" xlink:href="#block"/><use x="313.0000000000" y="331.0000000000" xlink:href="#block"/><use x="331.0000000000" y="331.0000000000" xlink:href="#block"/><use x="349.0000000000" y="331.0000000000" xlink:href="#block"/><use x="358.0000000000" y="331.0000000000" xlink:href="#block"/><use x="376.0000000000" y="331.0000000000" xlink:href="#block"/><use x="25.0000000000" y="340.0000000000" xlink:href="#block"/><use x="79.0000000000" y="340.0000000000" xlink:href="#block"/><use x="97.0000000000" y="340.0000000000" xlink:href="#block"/><use x="115.0000000000" y="340.0000000000" xlink:href="#block"/><use x="124.0000000000" y="340.0000000000" xlink:href="#block"/><use x="133.0000000000" y="340.0000000000" xlink:href="#block"/><use x="142.0000000000" y="340.0000000000" xlink:href="#block"/><use x="151.0000000000" y="340.0000000000" xlink:href="#block"/><use x="160.0000000000" y="340.0000000000" xlink:href="#block"/><use x="187.0000000000" y="340.0000000000" xlink:href="#block"/><use x="196.0000000000" y="340.0000000000" xlink:href="#block"/><use x="205.0000000000" y="340.0000000000" xlink:href="#block"/><use x="250.0000000000" y="340.0000000000" xlink:href="#block"/><use x="268.0000000000" y="340.0000000000" xlink:href="#block"/><use x="286.0000000000" y="340.0000000000" xlink:href="#block"/><use x="313.0000000000" y="340.0000000000" xlink:href="#block"/><use x="349.0000000000" y="340.0000000000" xlink:href="#block"/><use x="358.0000000000" y="340.0000000000" xlink:href="#block"/><use x="376.0000000000" y="340.0000000000" xlink:href="#block"/><use x="25.0000000000" y="349.0000000000" xlink:href="#block"/><use x="43.0000000000" y="349.0000000000" xlink:href="#block"/><use x="52.0000000000" y="349.0000000000" xlink:href="#block"/><use x="61.0000000000" y="349.0000000000" xlink:href="#block"/><use x="79.0000000000" y="349.0000000000" xlink:href="#block"/><use x="97.0000000000" y="349.0000000000" xlink:href="#block"/><use x="115.0000000000" y="349.0000000000" xlink:href="#block"/><use x="133.0000000000" y="349.0000000000" xlink:href="#block"/><use x="142.0000000000" y="349.0000000000" xlink:href="#block"/><use x="151.0000000000" y="349.0000000000" xlink:href="#block"/><use x="160.0000000000" y="349.0000000000" xlink:href="#block"/><use x="169.0000000000" y="349.0000000000" xlink:href="#block"/><use x="178.0000000000" y="349.0000000000" xlink:href="#block"/><use x="196.0000000000" y="349.0000000000" xlink:href="#block"/><use x="214.0000000000" y="349.0000000000" xlink:href="#block"/><use x="223.0000000000" y="349.0000000000" xlink:href="#block"/><use x="232.0000000000" y="349.0000000000" xlink:href="#block"/><use x="250.0000000000" y="349.0000000000" xlink:href="#block"/><use x="268.0000000000" y="349.0000000000" xlink:href="#block"/><use x="277.0000000000" y="349.0000000000" xlink:href="#block"/><use x="286.0000000000" y="349.0000000000" xlink:href="#block"/><use x="295.0000000000" y="349.0000000000" xlink:href="#block"/><use x="304.0000000000" y="349.0000000000" xlink:href="#block"/><use x="313.0000000000" y="349.0000000000" xlink:href="#block"/><use x="322.0000000000" y="349.0000000000" xlink:href="#block"/><use x="331.0000000000" y="349.0000000000" xlink:href="#block"/><use x="340.0000000000" y="349.0000000000" xlink:href="#block"/><use x="349.0000000000" y="349.0000000000" xlink:href="#block"/><use x="376.0000000000" y="349.0000000000" xlink:href="#block"/><use x="385.0000000000" y="349.0000000000" xlink:href="#block"/><use x="25.0000000000" y="358.0000000000" xlink:href="#block"/><use x="43.0000000000" y="358.0000000000" xlink:href="#block"/><use x="52.0000000000" y="358.0000000000" xlink:href="#block"/><use x="61.0000000000" y="358.0000000000" xlink:href="#block"/><use x="79.0000000000" y="358.0000000000" xlink:href="#block"/><use x="97.0000000000" y="358.0000000000" xlink:href="#block"/><use x="106.0000000000" y="358.0000000000" xlink:href="#block"/><use x="115.0000000000" y="358.0000000000" xlink:href="#block"/><use x="133.0000000000" y="358.0000000000" xlink:href="#block"/><use x="151.0000000000" y="358.0000000000" xlink:href="#block"/><use x="169.0000000000" y="358.0000000000" xlink:href="#block"/><use x="178.0000000000" y="358.0000000000" xlink:href="#block"/><use x="187.0000000000" y="358.0000000000" xlink:href="#block"/><use x="205.0000000000" y="358.0000000000" xlink:href="#block"/><use x="223.0000000000" y="358.0000000000" xlink:href="#block"/><use x="232.0000000000" y="358.0000000000" xlink:href="#block"/><use x="250.0000000000" y="358.0000000000" xlink:href="#block"/><use x="259.0000000000" y="358.0000000000" xlink:href="#block"/><use x="304.0000000000" y="358.0000000000" xlink:href="#block"/><use x="331.0000000000" y="358.0000000000" xlink:href="#block"/><use x="349.0000000000" y="358.0000000000" xlink:href="#block"/><use x="367.0000000000" y="358.0000000000" xlink:href="#block"/><use x="376.0000000000" y="358.0000000000" xlink:href="#block"/><use x="25.0000000000" y="367.0000000000" xlink:href="#block"/><use x="43.0000000000" y="367.0000000000" xlink:href="#block"/><use x="52.0000000000" y="367.0000000000" xlink:href="#block"/><use x="61.0000000000" y="367.0000000000" xlink:href="#block"/><use x="79.0000000000" y="367.0000000000" xlink:href="#block"/><use x="115.0000000000" y="367.0000000000" xlink:href="#block"/><use x="178.0000000000" y="367.0000000000" xlink:href="#block"/><use x="196.0000000000" y="367.0000000000" xlink:href="#block"/><use x="205.0000000000" y="367.0000000000" xlink:href="#block"/><use x="223.0000000000" y="367.0000000000" xlink:href="#block"/><use x="268.0000000000" y="367.0000000000" xlink:href="#block"/><use x="286.0000000000" y="367.0000000000" xlink:href="#block"/><use x="295.0000000000" y="367.0000000000" xlink:href="#block"/><use x="331.0000000000" y="367.0000000000" xlink:href="#block"/><use x="349.0000000000" y="367.0000000000" xlink:href="#block"/><use x="358.0000000000" y="367.0000000000" xlink:href="#block"/><use x="367.0000000000" y="367.0000000000" xlink:href="#block"/><use x="376.0000000000" y="367.0000000000" xlink:href="#block"/><use x="385.0000000000" y="367.0000000000" xlink:href="#block"/><use x="25.0000000000" y="376.0000000000" xlink:href="#block"/><use x="79.0000000000" y="376.0000000000" xlink:href="#block"/><use x="106.0000000000" y="376.0000000000" xlink:href="#block"/><use x="115.0000000000" y="376.0000000000" xlink:href="#block"/><use x="124.0000000000" y="376.0000000000" xlink:href="#block"/><use x="133.0000000000" y="376.0000000000" xlink:href="#block"/><use x="142.0000000000" y="376.0000000000" xlink:href="#block"/><use x="151.0000000000" y="376.0000000000" xlink:href="#block"/><use x="160.0000000000" y="376.0000000000" xlink:href="#block"/><use x="178.0000000000" y="376.0000000000" xlink:href="#block"/><use x="196.0000000000" y="376.0000000000" xlink:href="#block"/><use x="232.0000000000" y="376.0000000000" xlink:href="#block"/><use x="268.0000000000" y="376.0000000000" xlink:href="#block"/><use x="277.0000000000" y="376.0000000000" xlink:href="#block"/><use x="313.0000000000" y="376.0000000000" xlink:href="#block"/><use x="331.0000000000" y="376.0000000000" xlink:href="#block"/><use x="340.0000000000" y="376.0000000000" xlink:href="#block"/><use x="349.0000000000" y="376.0000000000" xlink:href="#block"/><use x="358.0000000000" y="376.0000000000" xlink:href="#block"/><use x="376.0000000000" y="376.0000000000" xlink:href="#block"/><use x="25.0000000000" y="385.0000000000" xlink:href="#block"/><use x="34.0000000000" y="385.0000000000" xlink:href="#block"/><use x="43.0000000000" y="385.0000000000" xlink:href="#block"/><use x="52.0000000000" y="385.0000000000" xlink:href="#block"/><use x="61.0000000000" y="385.0000000000" xlink:href="#block"/><use x="70.0000000000" y="385.0000000000" xlink:href="#block"/><use x="79.0000000000" y="385.0000000000" xlink:href="#block"/><use x="97.0000000000" y="385.0000000000" xlink:href="#block"/><use x="106.0000000000" y="385.0000000000" xlink:href="#block"/><use x="115.0000000000" y="385.0000000000" xlink:href="#block"/><use x="124.0000000000" y="385.0000000000" xlink:href="#block"/><use x="142.0000000000" y="385.0000000000" xlink:href="#block"/><use x="151.0000000000" y="385.0000000000" xlink:href="#block"/><use x="187.0000000000" y="385.0000000000" xlink:href="#block"/><use x="205.0000000000" y="385.0000000000" xlink:href="#block"/><use x="214.0000000000" y="385.0000000000" xlink:href="#block"/><use x="232.0000000000" y="385.0000000000" xlink:href="#block"/><use x="241.0000000000" y="385.0000000000" xlink:href="#block"/><use x="250.0000000000" y="385.0000000000" xlink:href="#block"/><use x="259.0000000000" y="385.0000000000" xlink:href="#block"/><use x="268.0000000000" y="385.0000000000" xlink:href="#block"/><use x="286.0000000000" y="385.0000000000" xlink:href="#block"/><use x="295.0000000000" y="385.0000000000" xlink:href="#block"/><use x="313.0000000000" y="385.0000000000" xlink:href="#block"/><use x="331.0000000000" y="385.0000000000" xlink:href="#block"/><use x="349.0000000000" y="385.0000000000" xlink:href="#block"/><use x="358.0000000000" y="385.0000000000" xlink:href="#block"/></svg>
